<mxfile host="app.diagrams.net" modified="2024-06-13T10:38:41.175Z" agent="Mozilla/5.0 (X11; Linux x86_64) AppleWebKit/537.36 (KHTML, like Gecko) Chrome/125.0.0.0 Safari/537.36" version="24.5.4" etag="Fun-A_BF7Pff87v5D_RX" type="device">
  <diagram id="C5RBs43oDa-KdzZeNtuy" name="Page-1">
    <mxGraphModel dx="3447" dy="943" grid="1" gridSize="10" guides="1" tooltips="1" connect="1" arrows="1" fold="1" page="1" pageScale="1" pageWidth="827" pageHeight="1169" math="0" shadow="0">
      <root>
        <mxCell id="WIyWlLk6GJQsqaUBKTNV-0" />
        <mxCell id="WIyWlLk6GJQsqaUBKTNV-1" parent="WIyWlLk6GJQsqaUBKTNV-0" />
        <UserObject label="" plantUmlData="{&quot;data&quot;:&quot;@startuml\n\nclass TcpServer {\n    +TcpServer(IOManager* io_woker, IOManager* accept_worker)\n    +~TcpServer()\n    +bool bind(Address::ptr addr)\n    +bool bind(addrs,fails)\n    +bool start()\n    +void stop()\n    +uint64_t getRecvTimeout() const\n    +std::string getName() const\n    +void setRecvTimeout(uint64_t v)\n    +void setName(const std::string&amp; v)\n    +bool isStop() const\n\n    #void handleClient(Socket::ptr client)\n    #void startAccept(Socket::ptr sock)\n\n    -std::vector&lt;Socket::ptr&gt; m_socks\n    -IOManager* m_ioWorker\n    -IOManager* m_acceptWorker\n    -uint64_t m_recvTimeout\n    -std::string m_name\n    -std::string m_type\n    -bool m_isStop\n}\n\nnote right of TcpServer\n&lt;&lt; TcpServer &gt;&gt;\n@brief TCP服务器封装\nend note\n\n@enduml\n&quot;,&quot;format&quot;:&quot;svg&quot;}" id="EvpxWQEOAeNcwRCwze3R-1">
          <mxCell style="shape=image;noLabel=1;verticalAlign=top;aspect=fixed;imageAspect=0;image=data:image/svg+xml,PD94bWwgdmVyc2lvbj0iMS4wIiBlbmNvZGluZz0idXMtYXNjaWkiIHN0YW5kYWxvbmU9Im5vIj8+PHN2ZyB4bWxucz0iaHR0cDovL3d3dy53My5vcmcvMjAwMC9zdmciIHhtbG5zOnhsaW5rPSJodHRwOi8vd3d3LnczLm9yZy8xOTk5L3hsaW5rIiBjb250ZW50U3R5bGVUeXBlPSJ0ZXh0L2NzcyIgaGVpZ2h0PSIzNzZweCIgcHJlc2VydmVBc3BlY3RSYXRpbz0ibm9uZSIgc3R5bGU9IndpZHRoOjYyNnB4O2hlaWdodDozNzZweDtiYWNrZ3JvdW5kOiNGRkZGRkY7IiB2ZXJzaW9uPSIxLjEiIHZpZXdCb3g9IjAgMCA2MjYgMzc2IiB3aWR0aD0iNjI2cHgiIHpvb21BbmRQYW49Im1hZ25pZnkiPjxkZWZzLz48Zz48IS0tY2xhc3MgVGNwU2VydmVyLS0+PGcgaWQ9ImVsZW1fVGNwU2VydmVyIj48cmVjdCBjb2RlTGluZT0iMSIgZmlsbD0iI0YxRjFGMSIgaGVpZ2h0PSIzNjIuNjcxOSIgaWQ9IlRjcFNlcnZlciIgcng9IjIuNSIgcnk9IjIuNSIgc3R5bGU9InN0cm9rZTojMTgxODE4O3N0cm9rZS13aWR0aDowLjU7IiB3aWR0aD0iNDIyIiB4PSI5IiB5PSI3Ii8+PGVsbGlwc2UgY3g9IjE4NC4yNSIgY3k9IjIzIiBmaWxsPSIjQUREMUIyIiByeD0iMTEiIHJ5PSIxMSIgc3R5bGU9InN0cm9rZTojMTgxODE4O3N0cm9rZS13aWR0aDoxLjA7Ii8+PHBhdGggZD0iTTE4MS44NzUsMjcuMjUgTDE4MS44NzUsMjkgTDE4Ni44MTI1LDI5IEwxODYuODEyNSwyNy4yNSBMMTgxLjg3NSwyNy4yNSBaIE0xODIuNTYyNSwyNy45Mzc1IFExODIuNTYyNSwyNy45Mzc1IDE4Mi41NjI1LDE4Ljc1IEwxODAuODEyNSwxOC43NSBRMTgwLjgxMjUsMTguNzUgMTgwLjgxMjUsMjcuOTM3NSBMMTgyLjU2MjUsMjcuOTM3NSBaIE0xODYuMTI1LDI3LjkzNzUgTDE4Ny44NzUsMjcuOTM3NSBRMTg3Ljg3NSwyNy45Mzc1IDE4Ny44NzUsMjUuMTI1IEwxODYuMTI1LDI1LjEyNSBRMTg2LjEyNSwyNS4xMjUgMTg2LjEyNSwyNy45Mzc1IFogTTE4Ni4xMjUsMTguNzUgUTE4Ni4xMjUsMTguNzUgMTg2LjEyNSwyMS41NjI1IEwxODcuODc1LDIxLjU2MjUgUTE4Ny44NzUsMjEuNTYyNSAxODcuODc1LDE4Ljc1IEwxODYuMTI1LDE4Ljc1IFogTTE4MS44NzUsMTkuNDM3NSBMMTg2LjgxMjUsMTkuNDM3NSBMMTg2LjgxMjUsMTcuNjg3NSBMMTgxLjg3NSwxNy42ODc1IEwxODEuODc1LDE5LjQzNzUgWiAiIGZpbGw9IiMwMDAwMDAiLz48dGV4dCBmaWxsPSIjMDAwMDAwIiBmb250LWZhbWlseT0ic2Fucy1zZXJpZiIgZm9udC1zaXplPSIxNCIgbGVuZ3RoQWRqdXN0PSJzcGFjaW5nIiB0ZXh0TGVuZ3RoPSI2MyIgeD0iMjA0Ljc1IiB5PSIyOC43NDIyIj5UY3BTZXJ2ZXI8L3RleHQ+PGxpbmUgc3R5bGU9InN0cm9rZTojMTgxODE4O3N0cm9rZS13aWR0aDowLjU7IiB4MT0iMTAiIHgyPSI0MzAiIHkxPSIzOSIgeTI9IjM5Ii8+PHJlY3QgZmlsbD0ibm9uZSIgaGVpZ2h0PSI2IiBzdHlsZT0ic3Ryb2tlOiNDODI5MzA7c3Ryb2tlLXdpZHRoOjEuMDsiIHdpZHRoPSI2IiB4PSIxNyIgeT0iNDguOTkyMiIvPjx0ZXh0IGZpbGw9IiMwMDAwMDAiIGZvbnQtZmFtaWx5PSJzYW5zLXNlcmlmIiBmb250LXNpemU9IjE0IiBsZW5ndGhBZGp1c3Q9InNwYWNpbmciIHRleHRMZW5ndGg9IjIyNSIgeD0iMjkiIHk9IjU2LjIzNDQiPnN0ZDo6dmVjdG9yJmx0O1NvY2tldDo6cHRyJmd0OyBtX3NvY2tzPC90ZXh0PjxyZWN0IGZpbGw9Im5vbmUiIGhlaWdodD0iNiIgc3R5bGU9InN0cm9rZTojQzgyOTMwO3N0cm9rZS13aWR0aDoxLjA7IiB3aWR0aD0iNiIgeD0iMTciIHk9IjYzLjk3NjYiLz48dGV4dCBmaWxsPSIjMDAwMDAwIiBmb250LWZhbWlseT0ic2Fucy1zZXJpZiIgZm9udC1zaXplPSIxNCIgbGVuZ3RoQWRqdXN0PSJzcGFjaW5nIiB0ZXh0TGVuZ3RoPSIxNDgiIHg9IjI5IiB5PSI3MS4yMTg4Ij5JT01hbmFnZXIqIG1faW9Xb3JrZXI8L3RleHQ+PHJlY3QgZmlsbD0ibm9uZSIgaGVpZ2h0PSI2IiBzdHlsZT0ic3Ryb2tlOiNDODI5MzA7c3Ryb2tlLXdpZHRoOjEuMDsiIHdpZHRoPSI2IiB4PSIxNyIgeT0iNzguOTYwOSIvPjx0ZXh0IGZpbGw9IiMwMDAwMDAiIGZvbnQtZmFtaWx5PSJzYW5zLXNlcmlmIiBmb250LXNpemU9IjE0IiBsZW5ndGhBZGp1c3Q9InNwYWNpbmciIHRleHRMZW5ndGg9IjE3NiIgeD0iMjkiIHk9Ijg2LjIwMzEiPklPTWFuYWdlciogbV9hY2NlcHRXb3JrZXI8L3RleHQ+PHJlY3QgZmlsbD0ibm9uZSIgaGVpZ2h0PSI2IiBzdHlsZT0ic3Ryb2tlOiNDODI5MzA7c3Ryb2tlLXdpZHRoOjEuMDsiIHdpZHRoPSI2IiB4PSIxNyIgeT0iOTMuOTQ1MyIvPjx0ZXh0IGZpbGw9IiMwMDAwMDAiIGZvbnQtZmFtaWx5PSJzYW5zLXNlcmlmIiBmb250LXNpemU9IjE0IiBsZW5ndGhBZGp1c3Q9InNwYWNpbmciIHRleHRMZW5ndGg9IjE1NiIgeD0iMjkiIHk9IjEwMS4xODc1Ij51aW50NjRfdCBtX3JlY3ZUaW1lb3V0PC90ZXh0PjxyZWN0IGZpbGw9Im5vbmUiIGhlaWdodD0iNiIgc3R5bGU9InN0cm9rZTojQzgyOTMwO3N0cm9rZS13aWR0aDoxLjA7IiB3aWR0aD0iNiIgeD0iMTciIHk9IjEwOC45Mjk3Ii8+PHRleHQgZmlsbD0iIzAwMDAwMCIgZm9udC1mYW1pbHk9InNhbnMtc2VyaWYiIGZvbnQtc2l6ZT0iMTQiIGxlbmd0aEFkanVzdD0ic3BhY2luZyIgdGV4dExlbmd0aD0iMTI4IiB4PSIyOSIgeT0iMTE2LjE3MTkiPnN0ZDo6c3RyaW5nIG1fbmFtZTwvdGV4dD48cmVjdCBmaWxsPSJub25lIiBoZWlnaHQ9IjYiIHN0eWxlPSJzdHJva2U6I0M4MjkzMDtzdHJva2Utd2lkdGg6MS4wOyIgd2lkdGg9IjYiIHg9IjE3IiB5PSIxMjMuOTE0MSIvPjx0ZXh0IGZpbGw9IiMwMDAwMDAiIGZvbnQtZmFtaWx5PSJzYW5zLXNlcmlmIiBmb250LXNpemU9IjE0IiBsZW5ndGhBZGp1c3Q9InNwYWNpbmciIHRleHRMZW5ndGg9IjEyNyIgeD0iMjkiIHk9IjEzMS4xNTYzIj5zdGQ6OnN0cmluZyBtX3R5cGU8L3RleHQ+PHJlY3QgZmlsbD0ibm9uZSIgaGVpZ2h0PSI2IiBzdHlsZT0ic3Ryb2tlOiNDODI5MzA7c3Ryb2tlLXdpZHRoOjEuMDsiIHdpZHRoPSI2IiB4PSIxNyIgeT0iMTM4Ljg5ODQiLz48dGV4dCBmaWxsPSIjMDAwMDAwIiBmb250LWZhbWlseT0ic2Fucy1zZXJpZiIgZm9udC1zaXplPSIxNCIgbGVuZ3RoQWRqdXN0PSJzcGFjaW5nIiB0ZXh0TGVuZ3RoPSI5MiIgeD0iMjkiIHk9IjE0Ni4xNDA2Ij5ib29sIG1faXNTdG9wPC90ZXh0PjxsaW5lIHN0eWxlPSJzdHJva2U6IzE4MTgxODtzdHJva2Utd2lkdGg6MC41OyIgeDE9IjEwIiB4Mj0iNDMwIiB5MT0iMTUxLjg5MDYiIHkyPSIxNTEuODkwNiIvPjxlbGxpcHNlIGN4PSIyMCIgY3k9IjE2NC44ODI4IiBmaWxsPSIjODRCRTg0IiByeD0iMyIgcnk9IjMiIHN0eWxlPSJzdHJva2U6IzAzODA0ODtzdHJva2Utd2lkdGg6MS4wOyIvPjx0ZXh0IGZpbGw9IiMwMDAwMDAiIGZvbnQtZmFtaWx5PSJzYW5zLXNlcmlmIiBmb250LXNpemU9IjE0IiBsZW5ndGhBZGp1c3Q9InNwYWNpbmciIHRleHRMZW5ndGg9IjM5NiIgeD0iMjkiIHk9IjE2OS4xMjUiPlRjcFNlcnZlcihJT01hbmFnZXIqIGlvX3dva2VyLCBJT01hbmFnZXIqIGFjY2VwdF93b3JrZXIpPC90ZXh0PjxlbGxpcHNlIGN4PSIyMCIgY3k9IjE3OS44NjcyIiBmaWxsPSIjODRCRTg0IiByeD0iMyIgcnk9IjMiIHN0eWxlPSJzdHJva2U6IzAzODA0ODtzdHJva2Utd2lkdGg6MS4wOyIvPjx0ZXh0IGZpbGw9IiMwMDAwMDAiIGZvbnQtZmFtaWx5PSJzYW5zLXNlcmlmIiBmb250LXNpemU9IjE0IiBsZW5ndGhBZGp1c3Q9InNwYWNpbmciIHRleHRMZW5ndGg9Ijg2IiB4PSIyOSIgeT0iMTg0LjEwOTQiPn5UY3BTZXJ2ZXIoKTwvdGV4dD48ZWxsaXBzZSBjeD0iMjAiIGN5PSIxOTQuODUxNiIgZmlsbD0iIzg0QkU4NCIgcng9IjMiIHJ5PSIzIiBzdHlsZT0ic3Ryb2tlOiMwMzgwNDg7c3Ryb2tlLXdpZHRoOjEuMDsiLz48dGV4dCBmaWxsPSIjMDAwMDAwIiBmb250LWZhbWlseT0ic2Fucy1zZXJpZiIgZm9udC1zaXplPSIxNCIgbGVuZ3RoQWRqdXN0PSJzcGFjaW5nIiB0ZXh0TGVuZ3RoPSIxOTgiIHg9IjI5IiB5PSIxOTkuMDkzOCI+Ym9vbCBiaW5kKEFkZHJlc3M6OnB0ciBhZGRyKTwvdGV4dD48ZWxsaXBzZSBjeD0iMjAiIGN5PSIyMDkuODM1OSIgZmlsbD0iIzg0QkU4NCIgcng9IjMiIHJ5PSIzIiBzdHlsZT0ic3Ryb2tlOiMwMzgwNDg7c3Ryb2tlLXdpZHRoOjEuMDsiLz48dGV4dCBmaWxsPSIjMDAwMDAwIiBmb250LWZhbWlseT0ic2Fucy1zZXJpZiIgZm9udC1zaXplPSIxNCIgbGVuZ3RoQWRqdXN0PSJzcGFjaW5nIiB0ZXh0TGVuZ3RoPSIxNTYiIHg9IjI5IiB5PSIyMTQuMDc4MSI+Ym9vbCBiaW5kKGFkZHJzLGZhaWxzKTwvdGV4dD48ZWxsaXBzZSBjeD0iMjAiIGN5PSIyMjQuODIwMyIgZmlsbD0iIzg0QkU4NCIgcng9IjMiIHJ5PSIzIiBzdHlsZT0ic3Ryb2tlOiMwMzgwNDg7c3Ryb2tlLXdpZHRoOjEuMDsiLz48dGV4dCBmaWxsPSIjMDAwMDAwIiBmb250LWZhbWlseT0ic2Fucy1zZXJpZiIgZm9udC1zaXplPSIxNCIgbGVuZ3RoQWRqdXN0PSJzcGFjaW5nIiB0ZXh0TGVuZ3RoPSI4NiIgeD0iMjkiIHk9IjIyOS4wNjI1Ij5ib29sIHN0YXJ0KCk8L3RleHQ+PGVsbGlwc2UgY3g9IjIwIiBjeT0iMjM5LjgwNDciIGZpbGw9IiM4NEJFODQiIHJ4PSIzIiByeT0iMyIgc3R5bGU9InN0cm9rZTojMDM4MDQ4O3N0cm9rZS13aWR0aDoxLjA7Ii8+PHRleHQgZmlsbD0iIzAwMDAwMCIgZm9udC1mYW1pbHk9InNhbnMtc2VyaWYiIGZvbnQtc2l6ZT0iMTQiIGxlbmd0aEFkanVzdD0ic3BhY2luZyIgdGV4dExlbmd0aD0iNzkiIHg9IjI5IiB5PSIyNDQuMDQ2OSI+dm9pZCBzdG9wKCk8L3RleHQ+PGVsbGlwc2UgY3g9IjIwIiBjeT0iMjU0Ljc4OTEiIGZpbGw9IiM4NEJFODQiIHJ4PSIzIiByeT0iMyIgc3R5bGU9InN0cm9rZTojMDM4MDQ4O3N0cm9rZS13aWR0aDoxLjA7Ii8+PHRleHQgZmlsbD0iIzAwMDAwMCIgZm9udC1mYW1pbHk9InNhbnMtc2VyaWYiIGZvbnQtc2l6ZT0iMTQiIGxlbmd0aEFkanVzdD0ic3BhY2luZyIgdGV4dExlbmd0aD0iMjIwIiB4PSIyOSIgeT0iMjU5LjAzMTMiPnVpbnQ2NF90IGdldFJlY3ZUaW1lb3V0KCkgY29uc3Q8L3RleHQ+PGVsbGlwc2UgY3g9IjIwIiBjeT0iMjY5Ljc3MzQiIGZpbGw9IiM4NEJFODQiIHJ4PSIzIiByeT0iMyIgc3R5bGU9InN0cm9rZTojMDM4MDQ4O3N0cm9rZS13aWR0aDoxLjA7Ii8+PHRleHQgZmlsbD0iIzAwMDAwMCIgZm9udC1mYW1pbHk9InNhbnMtc2VyaWYiIGZvbnQtc2l6ZT0iMTQiIGxlbmd0aEFkanVzdD0ic3BhY2luZyIgdGV4dExlbmd0aD0iMTkyIiB4PSIyOSIgeT0iMjc0LjAxNTYiPnN0ZDo6c3RyaW5nIGdldE5hbWUoKSBjb25zdDwvdGV4dD48ZWxsaXBzZSBjeD0iMjAiIGN5PSIyODQuNzU3OCIgZmlsbD0iIzg0QkU4NCIgcng9IjMiIHJ5PSIzIiBzdHlsZT0ic3Ryb2tlOiMwMzgwNDg7c3Ryb2tlLXdpZHRoOjEuMDsiLz48dGV4dCBmaWxsPSIjMDAwMDAwIiBmb250LWZhbWlseT0ic2Fucy1zZXJpZiIgZm9udC1zaXplPSIxNCIgbGVuZ3RoQWRqdXN0PSJzcGFjaW5nIiB0ZXh0TGVuZ3RoPSIyMjAiIHg9IjI5IiB5PSIyODkiPnZvaWQgc2V0UmVjdlRpbWVvdXQodWludDY0X3Qgdik8L3RleHQ+PGVsbGlwc2UgY3g9IjIwIiBjeT0iMjk5Ljc0MjIiIGZpbGw9IiM4NEJFODQiIHJ4PSIzIiByeT0iMyIgc3R5bGU9InN0cm9rZTojMDM4MDQ4O3N0cm9rZS13aWR0aDoxLjA7Ii8+PHRleHQgZmlsbD0iIzAwMDAwMCIgZm9udC1mYW1pbHk9InNhbnMtc2VyaWYiIGZvbnQtc2l6ZT0iMTQiIGxlbmd0aEFkanVzdD0ic3BhY2luZyIgdGV4dExlbmd0aD0iMjQxIiB4PSIyOSIgeT0iMzAzLjk4NDQiPnZvaWQgc2V0TmFtZShjb25zdCBzdGQ6OnN0cmluZyZhbXA7IHYpPC90ZXh0PjxlbGxpcHNlIGN4PSIyMCIgY3k9IjMxNC43MjY2IiBmaWxsPSIjODRCRTg0IiByeD0iMyIgcnk9IjMiIHN0eWxlPSJzdHJva2U6IzAzODA0ODtzdHJva2Utd2lkdGg6MS4wOyIvPjx0ZXh0IGZpbGw9IiMwMDAwMDAiIGZvbnQtZmFtaWx5PSJzYW5zLXNlcmlmIiBmb250LXNpemU9IjE0IiBsZW5ndGhBZGp1c3Q9InNwYWNpbmciIHRleHRMZW5ndGg9IjEzNSIgeD0iMjkiIHk9IjMxOC45Njg4Ij5ib29sIGlzU3RvcCgpIGNvbnN0PC90ZXh0Pjx0ZXh0IGZpbGw9IiMwMDAwMDAiIGZvbnQtZmFtaWx5PSJzYW5zLXNlcmlmIiBmb250LXNpemU9IjE0IiBsZW5ndGhBZGp1c3Q9InNwYWNpbmciIHRleHRMZW5ndGg9IjciIHg9IjI5IiB5PSIzMzMuOTUzMSI+JiMxNjA7PC90ZXh0Pjxwb2x5Z29uIGZpbGw9IiNGRkZGNDQiIHBvaW50cz0iMjAsMzM5LjY5NTMsMjQsMzQzLjY5NTMsMjAsMzQ3LjY5NTMsMTYsMzQzLjY5NTMiIHN0eWxlPSJzdHJva2U6I0IzOEQyMjtzdHJva2Utd2lkdGg6MS4wOyIvPjx0ZXh0IGZpbGw9IiMwMDAwMDAiIGZvbnQtZmFtaWx5PSJzYW5zLXNlcmlmIiBmb250LXNpemU9IjE0IiBsZW5ndGhBZGp1c3Q9InNwYWNpbmciIHRleHRMZW5ndGg9IjI2MSIgeD0iMjkiIHk9IjM0OC45Mzc1Ij52b2lkIGhhbmRsZUNsaWVudChTb2NrZXQ6OnB0ciBjbGllbnQpPC90ZXh0Pjxwb2x5Z29uIGZpbGw9IiNGRkZGNDQiIHBvaW50cz0iMjAsMzU0LjY3OTcsMjQsMzU4LjY3OTcsMjAsMzYyLjY3OTcsMTYsMzU4LjY3OTciIHN0eWxlPSJzdHJva2U6I0IzOEQyMjtzdHJva2Utd2lkdGg6MS4wOyIvPjx0ZXh0IGZpbGw9IiMwMDAwMDAiIGZvbnQtZmFtaWx5PSJzYW5zLXNlcmlmIiBmb250LXNpemU9IjE0IiBsZW5ndGhBZGp1c3Q9InNwYWNpbmciIHRleHRMZW5ndGg9IjI0MCIgeD0iMjkiIHk9IjM2My45MjE5Ij52b2lkIHN0YXJ0QWNjZXB0KFNvY2tldDo6cHRyIHNvY2spPC90ZXh0PjwvZz48ZyBpZD0iZWxlbV9HTU4zIj48cGF0aCBkPSJNNDY2LjUsMTY5LjUgTDQ2Ni41LDE4NC41IEw0MzEuMDIsMTg4LjUgTDQ2Ni41LDE5Mi41IEw0NjYuNSwyMDcuMzI4MSBBMCwwIDAgMCAwIDQ2Ni41LDIwNy4zMjgxIEw2MTkuNSwyMDcuMzI4MSBBMCwwIDAgMCAwIDYxOS41LDIwNy4zMjgxIEw2MTkuNSwxNzkuNSBMNjA5LjUsMTY5LjUgTDQ2Ni41LDE2OS41IEEwLDAgMCAwIDAgNDY2LjUsMTY5LjUgIiBmaWxsPSIjRkVGRkREIiBzdHlsZT0ic3Ryb2tlOiMxODE4MTg7c3Ryb2tlLXdpZHRoOjAuNTsiLz48cGF0aCBkPSJNNjA5LjUsMTY5LjUgTDYwOS41LDE3OS41IEw2MTkuNSwxNzkuNSBMNjA5LjUsMTY5LjUgIiBmaWxsPSIjRkVGRkREIiBzdHlsZT0ic3Ryb2tlOiMxODE4MTg7c3Ryb2tlLXdpZHRoOjAuNTsiLz48dGV4dCBmaWxsPSIjMDAwMDAwIiBmb250LWZhbWlseT0ic2Fucy1zZXJpZiIgZm9udC1zaXplPSIxMyIgbGVuZ3RoQWRqdXN0PSJzcGFjaW5nIiB0ZXh0TGVuZ3RoPSI3NiIgeD0iNDcyLjUiIHk9IjE4Ni43ODkxIj4mIzE3MTtUY3BTZXJ2ZXImIzE4Nzs8L3RleHQ+PHRleHQgZmlsbD0iIzAwMDAwMCIgZm9udC1mYW1pbHk9InNhbnMtc2VyaWYiIGZvbnQtc2l6ZT0iMTMiIGxlbmd0aEFkanVzdD0ic3BhY2luZyIgdGV4dExlbmd0aD0iMTMyIiB4PSI0NzIuNSIgeT0iMjAwLjcwMzEiPkBicmllZiBUQ1AmIzI2MzgxOyYjMjExNTM7JiMyMjEyMDsmIzIzNTUzOyYjMzUwMTM7PC90ZXh0PjwvZz48IS0tU1JDPVtSUEJGSWlEMDRDUmxVT2U1R0hnakRfNEdJaDdxdkM0X3M4QjdpRHNUZmFrSnRSMHhaT1dlVUYwWS0wMjI1XzdZcVBVZy0xWGtUakRxV3lxZi1VT3R0cW8tTlBQSk95WUtiSEZHNU1YbzduN3g3QlAyeC1wb2Q0Z1FXSnVXR2dNdFFXY3dKbUFIQ1dPYnNlQXNiVFh0RnN4UjZzTWNMNHZjR2xCVVk3Q0RuWUg5WVBmRy1fNkZnNE5KZHJFSGN4MWNhNmhTLTVMQVNBa2VTWUVpWENJSnVuSDkxZFdEaDlnQTBqSkF5ZUdmUVQxMzFkY0k2REgyUFpMdEdHbGUwandzd3owd0x0NE5Ta3NrY0dKNi1vdGRqWFBjdWhQaWZoWkFkZERPS0NicDZFUzI5Rk9jWVlxMVZJWkNJTjYwa2J5VmtRMHhmQjdsaVZTeVNZakttNTNmR1MwQ0lQN01jRjVLUzcxNUFqSURFeEtUOU4tZ09SY0RlS1pyRGZyV1RmRGhhS2dSb291VHh5ZjZUeWRPLUl3UncyNkFmNDhXTWNHQjk2Zy1sT3RITzExU3BVNG1FZnJmMEhPT05fc3lsd3ZWRmpQbE4tbGxmel9Gdm1XYTl4TkI3bTAwXS0tPjwvZz48L3N2Zz4=;" vertex="1" parent="WIyWlLk6GJQsqaUBKTNV-1">
            <mxGeometry x="-726" y="40" width="626" height="376" as="geometry" />
          </mxCell>
        </UserObject>
        <UserObject label="" plantUmlData="{&quot;data&quot;:&quot;@startuml\n\nclass IOManager {\n    +IOManager(size_t threads, bool use_caller, const std::string &amp;name)\n    +~IOManager()\n    +int addEvent(int fd, Event event, std::function&lt;void()&gt; cb)\n    +bool delEvent(int fd, Event event)\n    +bool cancelEvent(int fd, Event event)\n    +bool cancelAll(int fd)\n    +static IOManager *GetThis()\n    -void tickle() override\n    -bool stopping() override\n    -void idle() override\n    -bool stopping(uint64_t&amp; timeout)\n    -void onTimerInsertedAtFront() override\n    -void contextResize(size_t size)\n    -int m_epfd = 0\n    -int m_tickleFds[2]\n    -std::atomic&lt;size_t&gt; m_pendingEventCount = {0}\n    -RWMutexType m_mutex\n    -std::vector&lt;FdContext *&gt; m_fdContexts\n\n}\n\nnote right of IOManager\n&lt;&lt; IOManager &gt;&gt;\nend note\n\n@enduml&quot;,&quot;format&quot;:&quot;svg&quot;}" id="EvpxWQEOAeNcwRCwze3R-2">
          <mxCell style="shape=image;noLabel=1;verticalAlign=top;aspect=fixed;imageAspect=0;image=data:image/svg+xml,PD94bWwgdmVyc2lvbj0iMS4wIiBlbmNvZGluZz0idXMtYXNjaWkiIHN0YW5kYWxvbmU9Im5vIj8+PHN2ZyB4bWxucz0iaHR0cDovL3d3dy53My5vcmcvMjAwMC9zdmciIHhtbG5zOnhsaW5rPSJodHRwOi8vd3d3LnczLm9yZy8xOTk5L3hsaW5rIiBjb250ZW50U3R5bGVUeXBlPSJ0ZXh0L2NzcyIgaGVpZ2h0PSIzMzFweCIgcHJlc2VydmVBc3BlY3RSYXRpbz0ibm9uZSIgc3R5bGU9IndpZHRoOjY0NHB4O2hlaWdodDozMzFweDtiYWNrZ3JvdW5kOiNGRkZGRkY7IiB2ZXJzaW9uPSIxLjEiIHZpZXdCb3g9IjAgMCA2NDQgMzMxIiB3aWR0aD0iNjQ0cHgiIHpvb21BbmRQYW49Im1hZ25pZnkiPjxkZWZzLz48Zz48IS0tY2xhc3MgSU9NYW5hZ2VyLS0+PGcgaWQ9ImVsZW1fSU9NYW5hZ2VyIj48cmVjdCBjb2RlTGluZT0iMSIgZmlsbD0iI0YxRjFGMSIgaGVpZ2h0PSIzMTcuNzE4OCIgaWQ9IklPTWFuYWdlciIgcng9IjIuNSIgcnk9IjIuNSIgc3R5bGU9InN0cm9rZTojMTgxODE4O3N0cm9rZS13aWR0aDowLjU7IiB3aWR0aD0iNDk4IiB4PSI3IiB5PSI3Ii8+PGVsbGlwc2UgY3g9IjIyMC4yNSIgY3k9IjIzIiBmaWxsPSIjQUREMUIyIiByeD0iMTEiIHJ5PSIxMSIgc3R5bGU9InN0cm9rZTojMTgxODE4O3N0cm9rZS13aWR0aDoxLjA7Ii8+PHBhdGggZD0iTTIxNy44NzUsMjcuMjUgTDIxNy44NzUsMjkgTDIyMi44MTI1LDI5IEwyMjIuODEyNSwyNy4yNSBMMjE3Ljg3NSwyNy4yNSBaIE0yMTguNTYyNSwyNy45Mzc1IFEyMTguNTYyNSwyNy45Mzc1IDIxOC41NjI1LDE4Ljc1IEwyMTYuODEyNSwxOC43NSBRMjE2LjgxMjUsMTguNzUgMjE2LjgxMjUsMjcuOTM3NSBMMjE4LjU2MjUsMjcuOTM3NSBaIE0yMjIuMTI1LDI3LjkzNzUgTDIyMy44NzUsMjcuOTM3NSBRMjIzLjg3NSwyNy45Mzc1IDIyMy44NzUsMjUuMTI1IEwyMjIuMTI1LDI1LjEyNSBRMjIyLjEyNSwyNS4xMjUgMjIyLjEyNSwyNy45Mzc1IFogTTIyMi4xMjUsMTguNzUgUTIyMi4xMjUsMTguNzUgMjIyLjEyNSwyMS41NjI1IEwyMjMuODc1LDIxLjU2MjUgUTIyMy44NzUsMjEuNTYyNSAyMjMuODc1LDE4Ljc1IEwyMjIuMTI1LDE4Ljc1IFogTTIxNy44NzUsMTkuNDM3NSBMMjIyLjgxMjUsMTkuNDM3NSBMMjIyLjgxMjUsMTcuNjg3NSBMMjE3Ljg3NSwxNy42ODc1IEwyMTcuODc1LDE5LjQzNzUgWiAiIGZpbGw9IiMwMDAwMDAiLz48dGV4dCBmaWxsPSIjMDAwMDAwIiBmb250LWZhbWlseT0ic2Fucy1zZXJpZiIgZm9udC1zaXplPSIxNCIgbGVuZ3RoQWRqdXN0PSJzcGFjaW5nIiB0ZXh0TGVuZ3RoPSI2MyIgeD0iMjQwLjc1IiB5PSIyOC43NDIyIj5JT01hbmFnZXI8L3RleHQ+PGxpbmUgc3R5bGU9InN0cm9rZTojMTgxODE4O3N0cm9rZS13aWR0aDowLjU7IiB4MT0iOCIgeDI9IjUwNCIgeTE9IjM5IiB5Mj0iMzkiLz48cmVjdCBmaWxsPSJub25lIiBoZWlnaHQ9IjYiIHN0eWxlPSJzdHJva2U6I0M4MjkzMDtzdHJva2Utd2lkdGg6MS4wOyIgd2lkdGg9IjYiIHg9IjE1IiB5PSI0OC45OTIyIi8+PHRleHQgZmlsbD0iIzAwMDAwMCIgZm9udC1mYW1pbHk9InNhbnMtc2VyaWYiIGZvbnQtc2l6ZT0iMTQiIGxlbmd0aEFkanVzdD0ic3BhY2luZyIgdGV4dExlbmd0aD0iOTkiIHg9IjI3IiB5PSI1Ni4yMzQ0Ij5pbnQgbV9lcGZkID0gMDwvdGV4dD48cmVjdCBmaWxsPSJub25lIiBoZWlnaHQ9IjYiIHN0eWxlPSJzdHJva2U6I0M4MjkzMDtzdHJva2Utd2lkdGg6MS4wOyIgd2lkdGg9IjYiIHg9IjE1IiB5PSI2My45NzY2Ii8+PHRleHQgZmlsbD0iIzAwMDAwMCIgZm9udC1mYW1pbHk9InNhbnMtc2VyaWYiIGZvbnQtc2l6ZT0iMTQiIGxlbmd0aEFkanVzdD0ic3BhY2luZyIgdGV4dExlbmd0aD0iMTI3IiB4PSIyNyIgeT0iNzEuMjE4OCI+aW50IG1fdGlja2xlRmRzWzJdPC90ZXh0PjxyZWN0IGZpbGw9Im5vbmUiIGhlaWdodD0iNiIgc3R5bGU9InN0cm9rZTojQzgyOTMwO3N0cm9rZS13aWR0aDoxLjA7IiB3aWR0aD0iNiIgeD0iMTUiIHk9Ijc4Ljk2MDkiLz48dGV4dCBmaWxsPSIjMDAwMDAwIiBmb250LWZhbWlseT0ic2Fucy1zZXJpZiIgZm9udC1zaXplPSIxNCIgbGVuZ3RoQWRqdXN0PSJzcGFjaW5nIiB0ZXh0TGVuZ3RoPSIzMTkiIHg9IjI3IiB5PSI4Ni4yMDMxIj5zdGQ6OmF0b21pYyZsdDtzaXplX3QmZ3Q7IG1fcGVuZGluZ0V2ZW50Q291bnQgPSB7MH08L3RleHQ+PHJlY3QgZmlsbD0ibm9uZSIgaGVpZ2h0PSI2IiBzdHlsZT0ic3Ryb2tlOiNDODI5MzA7c3Ryb2tlLXdpZHRoOjEuMDsiIHdpZHRoPSI2IiB4PSIxNSIgeT0iOTMuOTQ1MyIvPjx0ZXh0IGZpbGw9IiMwMDAwMDAiIGZvbnQtZmFtaWx5PSJzYW5zLXNlcmlmIiBmb250LXNpemU9IjE0IiBsZW5ndGhBZGp1c3Q9InNwYWNpbmciIHRleHRMZW5ndGg9IjEzNSIgeD0iMjciIHk9IjEwMS4xODc1Ij5SV011dGV4VHlwZSBtX211dGV4PC90ZXh0PjxyZWN0IGZpbGw9Im5vbmUiIGhlaWdodD0iNiIgc3R5bGU9InN0cm9rZTojQzgyOTMwO3N0cm9rZS13aWR0aDoxLjA7IiB3aWR0aD0iNiIgeD0iMTUiIHk9IjEwOC45Mjk3Ii8+PHRleHQgZmlsbD0iIzAwMDAwMCIgZm9udC1mYW1pbHk9InNhbnMtc2VyaWYiIGZvbnQtc2l6ZT0iMTQiIGxlbmd0aEFkanVzdD0ic3BhY2luZyIgdGV4dExlbmd0aD0iMjYwIiB4PSIyNyIgeT0iMTE2LjE3MTkiPnN0ZDo6dmVjdG9yJmx0O0ZkQ29udGV4dCAqJmd0OyBtX2ZkQ29udGV4dHM8L3RleHQ+PGxpbmUgc3R5bGU9InN0cm9rZTojMTgxODE4O3N0cm9rZS13aWR0aDowLjU7IiB4MT0iOCIgeDI9IjUwNCIgeTE9IjEyMS45MjE5IiB5Mj0iMTIxLjkyMTkiLz48ZWxsaXBzZSBjeD0iMTgiIGN5PSIxMzQuOTE0MSIgZmlsbD0iIzg0QkU4NCIgcng9IjMiIHJ5PSIzIiBzdHlsZT0ic3Ryb2tlOiMwMzgwNDg7c3Ryb2tlLXdpZHRoOjEuMDsiLz48dGV4dCBmaWxsPSIjMDAwMDAwIiBmb250LWZhbWlseT0ic2Fucy1zZXJpZiIgZm9udC1zaXplPSIxNCIgbGVuZ3RoQWRqdXN0PSJzcGFjaW5nIiB0ZXh0TGVuZ3RoPSI0NzIiIHg9IjI3IiB5PSIxMzkuMTU2MyI+SU9NYW5hZ2VyKHNpemVfdCB0aHJlYWRzLCBib29sIHVzZV9jYWxsZXIsIGNvbnN0IHN0ZDo6c3RyaW5nICZhbXA7bmFtZSk8L3RleHQ+PGVsbGlwc2UgY3g9IjE4IiBjeT0iMTQ5Ljg5ODQiIGZpbGw9IiM4NEJFODQiIHJ4PSIzIiByeT0iMyIgc3R5bGU9InN0cm9rZTojMDM4MDQ4O3N0cm9rZS13aWR0aDoxLjA7Ii8+PHRleHQgZmlsbD0iIzAwMDAwMCIgZm9udC1mYW1pbHk9InNhbnMtc2VyaWYiIGZvbnQtc2l6ZT0iMTQiIGxlbmd0aEFkanVzdD0ic3BhY2luZyIgdGV4dExlbmd0aD0iODYiIHg9IjI3IiB5PSIxNTQuMTQwNiI+fklPTWFuYWdlcigpPC90ZXh0PjxlbGxpcHNlIGN4PSIxOCIgY3k9IjE2NC44ODI4IiBmaWxsPSIjODRCRTg0IiByeD0iMyIgcnk9IjMiIHN0eWxlPSJzdHJva2U6IzAzODA0ODtzdHJva2Utd2lkdGg6MS4wOyIvPjx0ZXh0IGZpbGw9IiMwMDAwMDAiIGZvbnQtZmFtaWx5PSJzYW5zLXNlcmlmIiBmb250LXNpemU9IjE0IiBsZW5ndGhBZGp1c3Q9InNwYWNpbmciIHRleHRMZW5ndGg9IjQxNyIgeD0iMjciIHk9IjE2OS4xMjUiPmludCBhZGRFdmVudChpbnQgZmQsIEV2ZW50IGV2ZW50LCBzdGQ6OmZ1bmN0aW9uJmx0O3ZvaWQoKSZndDsgY2IpPC90ZXh0PjxlbGxpcHNlIGN4PSIxOCIgY3k9IjE3OS44NjcyIiBmaWxsPSIjODRCRTg0IiByeD0iMyIgcnk9IjMiIHN0eWxlPSJzdHJva2U6IzAzODA0ODtzdHJva2Utd2lkdGg6MS4wOyIvPjx0ZXh0IGZpbGw9IiMwMDAwMDAiIGZvbnQtZmFtaWx5PSJzYW5zLXNlcmlmIiBmb250LXNpemU9IjE0IiBsZW5ndGhBZGp1c3Q9InNwYWNpbmciIHRleHRMZW5ndGg9IjI0MCIgeD0iMjciIHk9IjE4NC4xMDk0Ij5ib29sIGRlbEV2ZW50KGludCBmZCwgRXZlbnQgZXZlbnQpPC90ZXh0PjxlbGxpcHNlIGN4PSIxOCIgY3k9IjE5NC44NTE2IiBmaWxsPSIjODRCRTg0IiByeD0iMyIgcnk9IjMiIHN0eWxlPSJzdHJva2U6IzAzODA0ODtzdHJva2Utd2lkdGg6MS4wOyIvPjx0ZXh0IGZpbGw9IiMwMDAwMDAiIGZvbnQtZmFtaWx5PSJzYW5zLXNlcmlmIiBmb250LXNpemU9IjE0IiBsZW5ndGhBZGp1c3Q9InNwYWNpbmciIHRleHRMZW5ndGg9IjI2MSIgeD0iMjciIHk9IjE5OS4wOTM4Ij5ib29sIGNhbmNlbEV2ZW50KGludCBmZCwgRXZlbnQgZXZlbnQpPC90ZXh0PjxlbGxpcHNlIGN4PSIxOCIgY3k9IjIwOS44MzU5IiBmaWxsPSIjODRCRTg0IiByeD0iMyIgcnk9IjMiIHN0eWxlPSJzdHJva2U6IzAzODA0ODtzdHJva2Utd2lkdGg6MS4wOyIvPjx0ZXh0IGZpbGw9IiMwMDAwMDAiIGZvbnQtZmFtaWx5PSJzYW5zLXNlcmlmIiBmb250LXNpemU9IjE0IiBsZW5ndGhBZGp1c3Q9InNwYWNpbmciIHRleHRMZW5ndGg9IjE1NiIgeD0iMjciIHk9IjIxNC4wNzgxIj5ib29sIGNhbmNlbEFsbChpbnQgZmQpPC90ZXh0PjxlbGxpcHNlIGN4PSIxOCIgY3k9IjIyNC44MjAzIiBmaWxsPSIjODRCRTg0IiByeD0iMyIgcnk9IjMiIHN0eWxlPSJzdHJva2U6IzAzODA0ODtzdHJva2Utd2lkdGg6MS4wOyIvPjx0ZXh0IGZpbGw9IiMwMDAwMDAiIGZvbnQtZmFtaWx5PSJzYW5zLXNlcmlmIiBmb250LXNpemU9IjE0IiBsZW5ndGhBZGp1c3Q9InNwYWNpbmciIHRleHRMZW5ndGg9IjE5MSIgeD0iMjciIHk9IjIyOS4wNjI1Ij5zdGF0aWMgSU9NYW5hZ2VyICpHZXRUaGlzKCk8L3RleHQ+PHJlY3QgZmlsbD0iI0YyNEQ1QyIgaGVpZ2h0PSI2IiBzdHlsZT0ic3Ryb2tlOiNDODI5MzA7c3Ryb2tlLXdpZHRoOjEuMDsiIHdpZHRoPSI2IiB4PSIxNSIgeT0iMjM2LjgwNDciLz48dGV4dCBmaWxsPSIjMDAwMDAwIiBmb250LWZhbWlseT0ic2Fucy1zZXJpZiIgZm9udC1zaXplPSIxNCIgbGVuZ3RoQWRqdXN0PSJzcGFjaW5nIiB0ZXh0TGVuZ3RoPSIxNTYiIHg9IjI3IiB5PSIyNDQuMDQ2OSI+dm9pZCB0aWNrbGUoKSBvdmVycmlkZTwvdGV4dD48cmVjdCBmaWxsPSIjRjI0RDVDIiBoZWlnaHQ9IjYiIHN0eWxlPSJzdHJva2U6I0M4MjkzMDtzdHJva2Utd2lkdGg6MS4wOyIgd2lkdGg9IjYiIHg9IjE1IiB5PSIyNTEuNzg5MSIvPjx0ZXh0IGZpbGw9IiMwMDAwMDAiIGZvbnQtZmFtaWx5PSJzYW5zLXNlcmlmIiBmb250LXNpemU9IjE0IiBsZW5ndGhBZGp1c3Q9InNwYWNpbmciIHRleHRMZW5ndGg9IjE3MCIgeD0iMjciIHk9IjI1OS4wMzEzIj5ib29sIHN0b3BwaW5nKCkgb3ZlcnJpZGU8L3RleHQ+PHJlY3QgZmlsbD0iI0YyNEQ1QyIgaGVpZ2h0PSI2IiBzdHlsZT0ic3Ryb2tlOiNDODI5MzA7c3Ryb2tlLXdpZHRoOjEuMDsiIHdpZHRoPSI2IiB4PSIxNSIgeT0iMjY2Ljc3MzQiLz48dGV4dCBmaWxsPSIjMDAwMDAwIiBmb250LWZhbWlseT0ic2Fucy1zZXJpZiIgZm9udC1zaXplPSIxNCIgbGVuZ3RoQWRqdXN0PSJzcGFjaW5nIiB0ZXh0TGVuZ3RoPSIxNDIiIHg9IjI3IiB5PSIyNzQuMDE1NiI+dm9pZCBpZGxlKCkgb3ZlcnJpZGU8L3RleHQ+PHJlY3QgZmlsbD0iI0YyNEQ1QyIgaGVpZ2h0PSI2IiBzdHlsZT0ic3Ryb2tlOiNDODI5MzA7c3Ryb2tlLXdpZHRoOjEuMDsiIHdpZHRoPSI2IiB4PSIxNSIgeT0iMjgxLjc1NzgiLz48dGV4dCBmaWxsPSIjMDAwMDAwIiBmb250LWZhbWlseT0ic2Fucy1zZXJpZiIgZm9udC1zaXplPSIxNCIgbGVuZ3RoQWRqdXN0PSJzcGFjaW5nIiB0ZXh0TGVuZ3RoPSIyMjciIHg9IjI3IiB5PSIyODkiPmJvb2wgc3RvcHBpbmcodWludDY0X3QmYW1wOyB0aW1lb3V0KTwvdGV4dD48cmVjdCBmaWxsPSIjRjI0RDVDIiBoZWlnaHQ9IjYiIHN0eWxlPSJzdHJva2U6I0M4MjkzMDtzdHJva2Utd2lkdGg6MS4wOyIgd2lkdGg9IjYiIHg9IjE1IiB5PSIyOTYuNzQyMiIvPjx0ZXh0IGZpbGw9IiMwMDAwMDAiIGZvbnQtZmFtaWx5PSJzYW5zLXNlcmlmIiBmb250LXNpemU9IjE0IiBsZW5ndGhBZGp1c3Q9InNwYWNpbmciIHRleHRMZW5ndGg9IjI2OSIgeD0iMjciIHk9IjMwMy45ODQ0Ij52b2lkIG9uVGltZXJJbnNlcnRlZEF0RnJvbnQoKSBvdmVycmlkZTwvdGV4dD48cmVjdCBmaWxsPSIjRjI0RDVDIiBoZWlnaHQ9IjYiIHN0eWxlPSJzdHJva2U6I0M4MjkzMDtzdHJva2Utd2lkdGg6MS4wOyIgd2lkdGg9IjYiIHg9IjE1IiB5PSIzMTEuNzI2NiIvPjx0ZXh0IGZpbGw9IiMwMDAwMDAiIGZvbnQtZmFtaWx5PSJzYW5zLXNlcmlmIiBmb250LXNpemU9IjE0IiBsZW5ndGhBZGp1c3Q9InNwYWNpbmciIHRleHRMZW5ndGg9IjIxOSIgeD0iMjciIHk9IjMxOC45Njg4Ij52b2lkIGNvbnRleHRSZXNpemUoc2l6ZV90IHNpemUpPC90ZXh0PjwvZz48ZyBpZD0iZWxlbV9HTU4zIj48cGF0aCBkPSJNNTQwLjUsMTU0IEw1NDAuNSwxNjIgTDUwNS4xLDE2NiBMNTQwLjUsMTcwIEw1NDAuNSwxNzcuOTE0MSBBMCwwIDAgMCAwIDU0MC41LDE3Ny45MTQxIEw2MzcuNSwxNzcuOTE0MSBBMCwwIDAgMCAwIDYzNy41LDE3Ny45MTQxIEw2MzcuNSwxNjQgTDYyNy41LDE1NCBMNTQwLjUsMTU0IEEwLDAgMCAwIDAgNTQwLjUsMTU0ICIgZmlsbD0iI0ZFRkZERCIgc3R5bGU9InN0cm9rZTojMTgxODE4O3N0cm9rZS13aWR0aDowLjU7Ii8+PHBhdGggZD0iTTYyNy41LDE1NCBMNjI3LjUsMTY0IEw2MzcuNSwxNjQgTDYyNy41LDE1NCAiIGZpbGw9IiNGRUZGREQiIHN0eWxlPSJzdHJva2U6IzE4MTgxODtzdHJva2Utd2lkdGg6MC41OyIvPjx0ZXh0IGZpbGw9IiMwMDAwMDAiIGZvbnQtZmFtaWx5PSJzYW5zLXNlcmlmIiBmb250LXNpemU9IjEzIiBsZW5ndGhBZGp1c3Q9InNwYWNpbmciIHRleHRMZW5ndGg9Ijc2IiB4PSI1NDYuNSIgeT0iMTcxLjI4OTEiPiYjMTcxO0lPTWFuYWdlciYjMTg3OzwvdGV4dD48L2c+PCEtLVNSQz1bYkw3MUlpRDA0QnRkQS1PYVFPckdIM29LRDUyQWJId0FLMGVVSENmc1R6OGs5aGpYVG5CS0toX1R0TW5nMG9mWTNhYmN2aXNSRF9EdW1RbzVuU0VJQVJQMzB1Uzh0N0Z2Yk9ZalZDU0QwVXFEQ2M0SnM2ZlRHNnJubXJiSGU0YzBRc0s5QjhkbnM5QUhRV1NOWWZLdTI0R1ZQd09rOG5LMTQtQWtHS01uM3RBSEcxaTEtZFNJa0Y5UVNQOVFmT3NNOFh2YW1CU1RHUWowT0Y0aEduXzdjVUJfV2F3QmVXRHNES2tDOUUtVFE3WUZqRHZCc29ycXZHTTJXeG1LNjB6MERzWUM1MVhnQlI0Yk5MTmtDRC1nUlFTS1ZfUkxKajNqcE9Pa3Q5V0lUS3R6b0xnak5UOGliNEwzQUFPcUR6ZWotIC1DaXZuTlhBd3RHa3Rnb3JkeXdHaHp1a1M0ZzVwMjFLSnlOemZpQi10Sno3RkFqSXVucUFOYVFjM0E3Z3IwOTl4YXp5S3BOaGRTMlh6NG5qQW1VYnhNUmx0d2hxNDVCX3pfWlFmMkpEa2JTcDg5QTY3aDJfMUpRQTNmNmFUQTRPRUhrSnczcGlvYkhjbE9Tb2hCOG9HMkZfR0cwXS0tPjwvZz48L3N2Zz4=;" vertex="1" parent="WIyWlLk6GJQsqaUBKTNV-1">
            <mxGeometry x="-70" y="140" width="644" height="331" as="geometry" />
          </mxCell>
        </UserObject>
        <UserObject label="" plantUmlData="{&quot;data&quot;:&quot;@startuml\n\nclass EventContext {\n            -Scheduler *scheduler;\n            -Fiber::ptr fiber;\n            -std::function&lt;void()&gt; cb;\n}\n\nnote right of EventContext\n&lt;&lt; EventContext &gt;&gt;\n@brief 事件上下文类\nfd的每个事件都有一个事件上下文，\n保存这个事件的回调函数以及\n执行回调函数的调度器。\nsylar对fd事件做了简化，\n只预留了读事件和写事件，\n所有的事件都被归类到这两类事件中\nend note\n\n@enduml&quot;,&quot;format&quot;:&quot;svg&quot;}" id="EvpxWQEOAeNcwRCwze3R-5">
          <mxCell style="shape=image;noLabel=1;verticalAlign=top;aspect=fixed;imageAspect=0;image=data:image/svg+xml,PD94bWwgdmVyc2lvbj0iMS4wIiBlbmNvZGluZz0idXMtYXNjaWkiIHN0YW5kYWxvbmU9Im5vIj8+PHN2ZyB4bWxucz0iaHR0cDovL3d3dy53My5vcmcvMjAwMC9zdmciIHhtbG5zOnhsaW5rPSJodHRwOi8vd3d3LnczLm9yZy8xOTk5L3hsaW5rIiBjb250ZW50U3R5bGVUeXBlPSJ0ZXh0L2NzcyIgaGVpZ2h0PSIxMzRweCIgcHJlc2VydmVBc3BlY3RSYXRpbz0ibm9uZSIgc3R5bGU9IndpZHRoOjQ4MnB4O2hlaWdodDoxMzRweDtiYWNrZ3JvdW5kOiNGRkZGRkY7IiB2ZXJzaW9uPSIxLjEiIHZpZXdCb3g9IjAgMCA0ODIgMTM0IiB3aWR0aD0iNDgycHgiIHpvb21BbmRQYW49Im1hZ25pZnkiPjxkZWZzLz48Zz48IS0tY2xhc3MgRXZlbnRDb250ZXh0LS0+PGcgaWQ9ImVsZW1fRXZlbnRDb250ZXh0Ij48cmVjdCBjb2RlTGluZT0iMSIgZmlsbD0iI0YxRjFGMSIgaGVpZ2h0PSI5Mi45NTMxIiBpZD0iRXZlbnRDb250ZXh0IiByeD0iMi41IiByeT0iMi41IiBzdHlsZT0ic3Ryb2tlOiMxODE4MTg7c3Ryb2tlLXdpZHRoOjAuNTsiIHdpZHRoPSIyMDQiIHg9IjciIHk9IjIwIi8+PGVsbGlwc2UgY3g9IjYyLjc1IiBjeT0iMzYiIGZpbGw9IiNBREQxQjIiIHJ4PSIxMSIgcnk9IjExIiBzdHlsZT0ic3Ryb2tlOiMxODE4MTg7c3Ryb2tlLXdpZHRoOjEuMDsiLz48cGF0aCBkPSJNNjAuMzc1LDQwLjI1IEw2MC4zNzUsNDIgTDY1LjMxMjUsNDIgTDY1LjMxMjUsNDAuMjUgTDYwLjM3NSw0MC4yNSBaIE02MS4wNjI1LDQwLjkzNzUgUTYxLjA2MjUsNDAuOTM3NSA2MS4wNjI1LDMxLjc1IEw1OS4zMTI1LDMxLjc1IFE1OS4zMTI1LDMxLjc1IDU5LjMxMjUsNDAuOTM3NSBMNjEuMDYyNSw0MC45Mzc1IFogTTY0LjYyNSw0MC45Mzc1IEw2Ni4zNzUsNDAuOTM3NSBRNjYuMzc1LDQwLjkzNzUgNjYuMzc1LDM4LjEyNSBMNjQuNjI1LDM4LjEyNSBRNjQuNjI1LDM4LjEyNSA2NC42MjUsNDAuOTM3NSBaIE02NC42MjUsMzEuNzUgUTY0LjYyNSwzMS43NSA2NC42MjUsMzQuNTYyNSBMNjYuMzc1LDM0LjU2MjUgUTY2LjM3NSwzNC41NjI1IDY2LjM3NSwzMS43NSBMNjQuNjI1LDMxLjc1IFogTTYwLjM3NSwzMi40Mzc1IEw2NS4zMTI1LDMyLjQzNzUgTDY1LjMxMjUsMzAuNjg3NSBMNjAuMzc1LDMwLjY4NzUgTDYwLjM3NSwzMi40Mzc1IFogIiBmaWxsPSIjMDAwMDAwIi8+PHRleHQgZmlsbD0iIzAwMDAwMCIgZm9udC1mYW1pbHk9InNhbnMtc2VyaWYiIGZvbnQtc2l6ZT0iMTQiIGxlbmd0aEFkanVzdD0ic3BhY2luZyIgdGV4dExlbmd0aD0iODQiIHg9IjgzLjI1IiB5PSI0MS43NDIyIj5FdmVudENvbnRleHQ8L3RleHQ+PGxpbmUgc3R5bGU9InN0cm9rZTojMTgxODE4O3N0cm9rZS13aWR0aDowLjU7IiB4MT0iOCIgeDI9IjIxMCIgeTE9IjUyIiB5Mj0iNTIiLz48cmVjdCBmaWxsPSJub25lIiBoZWlnaHQ9IjYiIHN0eWxlPSJzdHJva2U6I0M4MjkzMDtzdHJva2Utd2lkdGg6MS4wOyIgd2lkdGg9IjYiIHg9IjE1IiB5PSI2MS45OTIyIi8+PHRleHQgZmlsbD0iIzAwMDAwMCIgZm9udC1mYW1pbHk9InNhbnMtc2VyaWYiIGZvbnQtc2l6ZT0iMTQiIGxlbmd0aEFkanVzdD0ic3BhY2luZyIgdGV4dExlbmd0aD0iMTQ4IiB4PSIyNyIgeT0iNjkuMjM0NCI+U2NoZWR1bGVyICpzY2hlZHVsZXI7PC90ZXh0PjxyZWN0IGZpbGw9Im5vbmUiIGhlaWdodD0iNiIgc3R5bGU9InN0cm9rZTojQzgyOTMwO3N0cm9rZS13aWR0aDoxLjA7IiB3aWR0aD0iNiIgeD0iMTUiIHk9Ijc2Ljk3NjYiLz48dGV4dCBmaWxsPSIjMDAwMDAwIiBmb250LWZhbWlseT0ic2Fucy1zZXJpZiIgZm9udC1zaXplPSIxNCIgbGVuZ3RoQWRqdXN0PSJzcGFjaW5nIiB0ZXh0TGVuZ3RoPSIxMjAiIHg9IjI3IiB5PSI4NC4yMTg4Ij5GaWJlcjo6cHRyIGZpYmVyOzwvdGV4dD48bGluZSBzdHlsZT0ic3Ryb2tlOiMxODE4MTg7c3Ryb2tlLXdpZHRoOjAuNTsiIHgxPSI4IiB4Mj0iMjEwIiB5MT0iODkuOTY4OCIgeTI9Ijg5Ljk2ODgiLz48cmVjdCBmaWxsPSIjRjI0RDVDIiBoZWlnaHQ9IjYiIHN0eWxlPSJzdHJva2U6I0M4MjkzMDtzdHJva2Utd2lkdGg6MS4wOyIgd2lkdGg9IjYiIHg9IjE1IiB5PSI5OS45NjA5Ii8+PHRleHQgZmlsbD0iIzAwMDAwMCIgZm9udC1mYW1pbHk9InNhbnMtc2VyaWYiIGZvbnQtc2l6ZT0iMTQiIGxlbmd0aEFkanVzdD0ic3BhY2luZyIgdGV4dExlbmd0aD0iMTc4IiB4PSIyNyIgeT0iMTA3LjIwMzEiPnN0ZDo6ZnVuY3Rpb24mbHQ7dm9pZCgpJmd0OyBjYjs8L3RleHQ+PC9nPjxnIGlkPSJlbGVtX0dNTjMiPjxwYXRoIGQ9Ik0yNDYuNSw2IEwyNDYuNSw2Mi41IEwyMTEuMzgsNjYuNSBMMjQ2LjUsNzAuNSBMMjQ2LjUsMTI3LjMxMjUgQTAsMCAwIDAgMCAyNDYuNSwxMjcuMzEyNSBMNDc1LjUsMTI3LjMxMjUgQTAsMCAwIDAgMCA0NzUuNSwxMjcuMzEyNSBMNDc1LjUsMTYgTDQ2NS41LDYgTDI0Ni41LDYgQTAsMCAwIDAgMCAyNDYuNSw2ICIgZmlsbD0iI0ZFRkZERCIgc3R5bGU9InN0cm9rZTojMTgxODE4O3N0cm9rZS13aWR0aDowLjU7Ii8+PHBhdGggZD0iTTQ2NS41LDYgTDQ2NS41LDE2IEw0NzUuNSwxNiBMNDY1LjUsNiAiIGZpbGw9IiNGRUZGREQiIHN0eWxlPSJzdHJva2U6IzE4MTgxODtzdHJva2Utd2lkdGg6MC41OyIvPjx0ZXh0IGZpbGw9IiMwMDAwMDAiIGZvbnQtZmFtaWx5PSJzYW5zLXNlcmlmIiBmb250LXNpemU9IjEzIiBsZW5ndGhBZGp1c3Q9InNwYWNpbmciIHRleHRMZW5ndGg9Ijk1IiB4PSIyNTIuNSIgeT0iMjMuMjg5MSI+JiMxNzE7RXZlbnRDb250ZXh0JiMxODc7PC90ZXh0Pjx0ZXh0IGZpbGw9IiMwMDAwMDAiIGZvbnQtZmFtaWx5PSJzYW5zLXNlcmlmIiBmb250LXNpemU9IjEzIiBsZW5ndGhBZGp1c3Q9InNwYWNpbmciIHRleHRMZW5ndGg9IjEyNSIgeD0iMjUyLjUiIHk9IjM3LjIwMzEiPkBicmllZiAmIzIwMTA3OyYjMjAyMTQ7JiMxOTk3ODsmIzE5OTc5OyYjMjU5OTE7JiMzMTg2Nzs8L3RleHQ+PHRleHQgZmlsbD0iIzAwMDAwMCIgZm9udC1mYW1pbHk9InNhbnMtc2VyaWYiIGZvbnQtc2l6ZT0iMTMiIGxlbmd0aEFkanVzdD0ic3BhY2luZyIgdGV4dExlbmd0aD0iMjA4IiB4PSIyNTIuNSIgeT0iNTEuMTE3MiI+ZmQmIzMwMzQwOyYjMjc1OTk7JiMyMDAxMDsmIzIwMTA3OyYjMjAyMTQ7JiMzNzExNzsmIzI2Mzc3OyYjMTk5Njg7JiMyMDAxMDsmIzIwMTA3OyYjMjAyMTQ7JiMxOTk3ODsmIzE5OTc5OyYjMjU5OTE7JiM2NTI5Mjs8L3RleHQ+PHRleHQgZmlsbD0iIzAwMDAwMCIgZm9udC1mYW1pbHk9InNhbnMtc2VyaWYiIGZvbnQtc2l6ZT0iMTMiIGxlbmd0aEFkanVzdD0ic3BhY2luZyIgdGV4dExlbmd0aD0iMTY5IiB4PSIyNTIuNSIgeT0iNjUuMDMxMyI+JiMyMDQ0NTsmIzIzMzg0OyYjMzY4MjU7JiMyMDAxMDsmIzIwMTA3OyYjMjAyMTQ7JiMzMDM0MDsmIzIyMjM4OyYjMzU4NDM7JiMyMDk4OTsmIzI1OTY4OyYjMjAxOTc7JiMyMTQ1MDs8L3RleHQ+PHRleHQgZmlsbD0iIzAwMDAwMCIgZm9udC1mYW1pbHk9InNhbnMtc2VyaWYiIGZvbnQtc2l6ZT0iMTMiIGxlbmd0aEFkanVzdD0ic3BhY2luZyIgdGV4dExlbmd0aD0iMTQzIiB4PSIyNTIuNSIgeT0iNzguOTQ1MyI+JiMyNTE5MTsmIzM0ODkyOyYjMjIyMzg7JiMzNTg0MzsmIzIwOTg5OyYjMjU5Njg7JiMzMDM0MDsmIzM1ODQzOyYjMjQyMzA7JiMyMjEyMDsmIzEyMjkwOzwvdGV4dD48dGV4dCBmaWxsPSIjMDAwMDAwIiBmb250LWZhbWlseT0ic2Fucy1zZXJpZiIgZm9udC1zaXplPSIxMyIgbGVuZ3RoQWRqdXN0PSJzcGFjaW5nIiB0ZXh0TGVuZ3RoPSIxNTEiIHg9IjI1Mi41IiB5PSI5Mi44NTk0Ij5zeWxhciYjMjM1NDU7ZmQmIzIwMTA3OyYjMjAyMTQ7JiMyMDU3MDsmIzIwMTAyOyYjMzE2MTY7JiMyMTI3MDsmIzY1MjkyOzwvdGV4dD48dGV4dCBmaWxsPSIjMDAwMDAwIiBmb250LWZhbWlseT0ic2Fucy1zZXJpZiIgZm9udC1zaXplPSIxMyIgbGVuZ3RoQWRqdXN0PSJzcGFjaW5nIiB0ZXh0TGVuZ3RoPSIxNTYiIHg9IjI1Mi41IiB5PSIxMDYuNzczNCI+JiMyMTQ4MjsmIzM5MDQ0OyYjMzAwNDE7JiMyMDEwMjsmIzM1ODM1OyYjMjAxMDc7JiMyMDIxNDsmIzIxNjQ0OyYjMjA4ODk7JiMyMDEwNzsmIzIwMjE0OyYjNjUyOTI7PC90ZXh0Pjx0ZXh0IGZpbGw9IiMwMDAwMDAiIGZvbnQtZmFtaWx5PSJzYW5zLXNlcmlmIiBmb250LXNpemU9IjEzIiBsZW5ndGhBZGp1c3Q9InNwYWNpbmciIHRleHRMZW5ndGg9IjIwOCIgeD0iMjUyLjUiIHk9IjEyMC42ODc1Ij4mIzI1MTUyOyYjMjYzNzc7JiMzMDM0MDsmIzIwMTA3OyYjMjAyMTQ7JiMzNzExNzsmIzM0OTg3OyYjMjQ0MDI7JiMzMTg2NzsmIzIxMDQwOyYjMzY4MjU7JiMyMDAwNDsmIzMxODY3OyYjMjAxMDc7JiMyMDIxNDsmIzIwMDEzOzwvdGV4dD48L2c+PCEtLVNSQz1bTlAxVElpRDA1OE5WUG5OcGc4OFJJNGlHSDNWVzJqZmFPV0NYYU1IUTUxNllCUXJmMHVMMll3YV9PQjRnYlBodzhaNm5UMzdFOUVjSk10MVlSNll5SnVUeGxkbGR0MTZLYWM3MGxIZkl5UXdjT2RJQ3VJYzBReEx6ODVJR001TUczaFVDYklwYWFOc3ZaN0lFRXk4d2IxQnZwcFFtbzc1SUxITW1oQWQ1Y1lRQjZ2aXk1Q2U1UzBRMGdjNDRUVmNtV2c0Y3ZPQTBPWjRWWkVWMUpiY05hR0k5dG83MUVfN1FuRWs0V3JScTVXMTlaOFFEcUVxSVJ2QXdvX2V5bEI2OFBzUVRaRl8tajA1UHREQmZMUm5tQ2ZsRHEta3hVNVFkaE5kT2R2NVdKQmpqNDVmRnlSc3pSWjBrcVZ1WlRQd19wMGpXZDJXYmRSZVZhZlprZVVUM3VaVVpMdkZRVy1HYnNmcWlIdXNleHgxa3gwUF9LQy1jSklWTDJISFE5YWxCTGNWWHV6NEJkVlZPUVZIb3pYbHBXVWRMOExFMEwxNGNWX1MzXS0tPjwvZz48L3N2Zz4=;" vertex="1" parent="WIyWlLk6GJQsqaUBKTNV-1">
            <mxGeometry x="-980" y="585" width="482" height="134" as="geometry" />
          </mxCell>
        </UserObject>
        <UserObject label="" plantUmlData="{&quot;data&quot;:&quot;@startuml\n\nclass FdContext {\n        typedef Mutex MutexType;\n        EventContext &amp;getEventContext(Event event);\n        void resetEventContext(EventContext &amp;ctx);\n        void triggerEvent(Event event);\n        EventContext read;\n        EventContext write;\n        int fd = 0;\n        Event events = NONE;\n        MutexType mutex;\n\n}\n\nnote right of FdContext\n&lt;&lt; FdContext &gt;&gt;\n@brief socket fd上下文类,\n每个socket_fd都对应一个FdContext，\n包括fd的值，fd上的事件，\n以及fd的读写事件上下文 \nend note\n\n@enduml&quot;,&quot;format&quot;:&quot;svg&quot;}" id="EvpxWQEOAeNcwRCwze3R-6">
          <mxCell style="shape=image;noLabel=1;verticalAlign=top;aspect=fixed;imageAspect=0;image=data:image/svg+xml,PD94bWwgdmVyc2lvbj0iMS4wIiBlbmNvZGluZz0idXMtYXNjaWkiIHN0YW5kYWxvbmU9Im5vIj8+PHN2ZyB4bWxucz0iaHR0cDovL3d3dy53My5vcmcvMjAwMC9zdmciIHhtbG5zOnhsaW5rPSJodHRwOi8vd3d3LnczLm9yZy8xOTk5L3hsaW5rIiBjb250ZW50U3R5bGVUeXBlPSJ0ZXh0L2NzcyIgaGVpZ2h0PSIxOTZweCIgcHJlc2VydmVBc3BlY3RSYXRpbz0ibm9uZSIgc3R5bGU9IndpZHRoOjYxMnB4O2hlaWdodDoxOTZweDtiYWNrZ3JvdW5kOiNGRkZGRkY7IiB2ZXJzaW9uPSIxLjEiIHZpZXdCb3g9IjAgMCA2MTIgMTk2IiB3aWR0aD0iNjEycHgiIHpvb21BbmRQYW49Im1hZ25pZnkiPjxkZWZzLz48Zz48IS0tY2xhc3MgRmRDb250ZXh0LS0+PGcgaWQ9ImVsZW1fRmRDb250ZXh0Ij48cmVjdCBjb2RlTGluZT0iMSIgZmlsbD0iI0YxRjFGMSIgaGVpZ2h0PSIxODIuODU5NCIgaWQ9IkZkQ29udGV4dCIgcng9IjIuNSIgcnk9IjIuNSIgc3R5bGU9InN0cm9rZTojMTgxODE4O3N0cm9rZS13aWR0aDowLjU7IiB3aWR0aD0iMzE2IiB4PSI3IiB5PSI3Ii8+PGVsbGlwc2UgY3g9IjEyOS4yNSIgY3k9IjIzIiBmaWxsPSIjQUREMUIyIiByeD0iMTEiIHJ5PSIxMSIgc3R5bGU9InN0cm9rZTojMTgxODE4O3N0cm9rZS13aWR0aDoxLjA7Ii8+PHBhdGggZD0iTTEyNi44NzUsMjcuMjUgTDEyNi44NzUsMjkgTDEzMS44MTI1LDI5IEwxMzEuODEyNSwyNy4yNSBMMTI2Ljg3NSwyNy4yNSBaIE0xMjcuNTYyNSwyNy45Mzc1IFExMjcuNTYyNSwyNy45Mzc1IDEyNy41NjI1LDE4Ljc1IEwxMjUuODEyNSwxOC43NSBRMTI1LjgxMjUsMTguNzUgMTI1LjgxMjUsMjcuOTM3NSBMMTI3LjU2MjUsMjcuOTM3NSBaIE0xMzEuMTI1LDI3LjkzNzUgTDEzMi44NzUsMjcuOTM3NSBRMTMyLjg3NSwyNy45Mzc1IDEzMi44NzUsMjUuMTI1IEwxMzEuMTI1LDI1LjEyNSBRMTMxLjEyNSwyNS4xMjUgMTMxLjEyNSwyNy45Mzc1IFogTTEzMS4xMjUsMTguNzUgUTEzMS4xMjUsMTguNzUgMTMxLjEyNSwyMS41NjI1IEwxMzIuODc1LDIxLjU2MjUgUTEzMi44NzUsMjEuNTYyNSAxMzIuODc1LDE4Ljc1IEwxMzEuMTI1LDE4Ljc1IFogTTEyNi44NzUsMTkuNDM3NSBMMTMxLjgxMjUsMTkuNDM3NSBMMTMxLjgxMjUsMTcuNjg3NSBMMTI2Ljg3NSwxNy42ODc1IEwxMjYuODc1LDE5LjQzNzUgWiAiIGZpbGw9IiMwMDAwMDAiLz48dGV4dCBmaWxsPSIjMDAwMDAwIiBmb250LWZhbWlseT0ic2Fucy1zZXJpZiIgZm9udC1zaXplPSIxNCIgbGVuZ3RoQWRqdXN0PSJzcGFjaW5nIiB0ZXh0TGVuZ3RoPSI2MyIgeD0iMTQ5Ljc1IiB5PSIyOC43NDIyIj5GZENvbnRleHQ8L3RleHQ+PGxpbmUgc3R5bGU9InN0cm9rZTojMTgxODE4O3N0cm9rZS13aWR0aDowLjU7IiB4MT0iOCIgeDI9IjMyMiIgeTE9IjM5IiB5Mj0iMzkiLz48dGV4dCBmaWxsPSIjMDAwMDAwIiBmb250LWZhbWlseT0ic2Fucy1zZXJpZiIgZm9udC1zaXplPSIxNCIgbGVuZ3RoQWRqdXN0PSJzcGFjaW5nIiB0ZXh0TGVuZ3RoPSIxNjkiIHg9IjEzIiB5PSI1Ni4yMzQ0Ij50eXBlZGVmIE11dGV4IE11dGV4VHlwZTs8L3RleHQ+PHRleHQgZmlsbD0iIzAwMDAwMCIgZm9udC1mYW1pbHk9InNhbnMtc2VyaWYiIGZvbnQtc2l6ZT0iMTQiIGxlbmd0aEFkanVzdD0ic3BhY2luZyIgdGV4dExlbmd0aD0iMTI3IiB4PSIxMyIgeT0iNzEuMjE4OCI+RXZlbnRDb250ZXh0IHJlYWQ7PC90ZXh0Pjx0ZXh0IGZpbGw9IiMwMDAwMDAiIGZvbnQtZmFtaWx5PSJzYW5zLXNlcmlmIiBmb250LXNpemU9IjE0IiBsZW5ndGhBZGp1c3Q9InNwYWNpbmciIHRleHRMZW5ndGg9IjEzNSIgeD0iMTMiIHk9Ijg2LjIwMzEiPkV2ZW50Q29udGV4dCB3cml0ZTs8L3RleHQ+PHRleHQgZmlsbD0iIzAwMDAwMCIgZm9udC1mYW1pbHk9InNhbnMtc2VyaWYiIGZvbnQtc2l6ZT0iMTQiIGxlbmd0aEFkanVzdD0ic3BhY2luZyIgdGV4dExlbmd0aD0iNzgiIHg9IjEzIiB5PSIxMDEuMTg3NSI+aW50IGZkID0gMDs8L3RleHQ+PHRleHQgZmlsbD0iIzAwMDAwMCIgZm9udC1mYW1pbHk9InNhbnMtc2VyaWYiIGZvbnQtc2l6ZT0iMTQiIGxlbmd0aEFkanVzdD0ic3BhY2luZyIgdGV4dExlbmd0aD0iMTQxIiB4PSIxMyIgeT0iMTE2LjE3MTkiPkV2ZW50IGV2ZW50cyA9IE5PTkU7PC90ZXh0Pjx0ZXh0IGZpbGw9IiMwMDAwMDAiIGZvbnQtZmFtaWx5PSJzYW5zLXNlcmlmIiBmb250LXNpemU9IjE0IiBsZW5ndGhBZGp1c3Q9InNwYWNpbmciIHRleHRMZW5ndGg9IjExNCIgeD0iMTMiIHk9IjEzMS4xNTYzIj5NdXRleFR5cGUgbXV0ZXg7PC90ZXh0PjxsaW5lIHN0eWxlPSJzdHJva2U6IzE4MTgxODtzdHJva2Utd2lkdGg6MC41OyIgeDE9IjgiIHgyPSIzMjIiIHkxPSIxMzYuOTA2MyIgeTI9IjEzNi45MDYzIi8+PHRleHQgZmlsbD0iIzAwMDAwMCIgZm9udC1mYW1pbHk9InNhbnMtc2VyaWYiIGZvbnQtc2l6ZT0iMTQiIGxlbmd0aEFkanVzdD0ic3BhY2luZyIgdGV4dExlbmd0aD0iMzA0IiB4PSIxMyIgeT0iMTU0LjE0MDYiPkV2ZW50Q29udGV4dCAmYW1wO2dldEV2ZW50Q29udGV4dChFdmVudCBldmVudCk7PC90ZXh0Pjx0ZXh0IGZpbGw9IiMwMDAwMDAiIGZvbnQtZmFtaWx5PSJzYW5zLXNlcmlmIiBmb250LXNpemU9IjE0IiBsZW5ndGhBZGp1c3Q9InNwYWNpbmciIHRleHRMZW5ndGg9IjI5NyIgeD0iMTMiIHk9IjE2OS4xMjUiPnZvaWQgcmVzZXRFdmVudENvbnRleHQoRXZlbnRDb250ZXh0ICZhbXA7Y3R4KTs8L3RleHQ+PHRleHQgZmlsbD0iIzAwMDAwMCIgZm9udC1mYW1pbHk9InNhbnMtc2VyaWYiIGZvbnQtc2l6ZT0iMTQiIGxlbmd0aEFkanVzdD0ic3BhY2luZyIgdGV4dExlbmd0aD0iMjIwIiB4PSIxMyIgeT0iMTg0LjEwOTQiPnZvaWQgdHJpZ2dlckV2ZW50KEV2ZW50IGV2ZW50KTs8L3RleHQ+PC9nPjxnIGlkPSJlbGVtX0dNTjMiPjxwYXRoIGQ9Ik0zNTguNSw1OC41IEwzNTguNSw5NC41IEwzMjMuMTksOTguNSBMMzU4LjUsMTAyLjUgTDM1OC41LDEzOC4wNzAzIEEwLDAgMCAwIDAgMzU4LjUsMTM4LjA3MDMgTDYwNS41LDEzOC4wNzAzIEEwLDAgMCAwIDAgNjA1LjUsMTM4LjA3MDMgTDYwNS41LDY4LjUgTDU5NS41LDU4LjUgTDM1OC41LDU4LjUgQTAsMCAwIDAgMCAzNTguNSw1OC41ICIgZmlsbD0iI0ZFRkZERCIgc3R5bGU9InN0cm9rZTojMTgxODE4O3N0cm9rZS13aWR0aDowLjU7Ii8+PHBhdGggZD0iTTU5NS41LDU4LjUgTDU5NS41LDY4LjUgTDYwNS41LDY4LjUgTDU5NS41LDU4LjUgIiBmaWxsPSIjRkVGRkREIiBzdHlsZT0ic3Ryb2tlOiMxODE4MTg7c3Ryb2tlLXdpZHRoOjAuNTsiLz48dGV4dCBmaWxsPSIjMDAwMDAwIiBmb250LWZhbWlseT0ic2Fucy1zZXJpZiIgZm9udC1zaXplPSIxMyIgbGVuZ3RoQWRqdXN0PSJzcGFjaW5nIiB0ZXh0TGVuZ3RoPSI3NSIgeD0iMzY0LjUiIHk9Ijc1Ljc4OTEiPiYjMTcxO0ZkQ29udGV4dCYjMTg3OzwvdGV4dD48dGV4dCBmaWxsPSIjMDAwMDAwIiBmb250LWZhbWlseT0ic2Fucy1zZXJpZiIgZm9udC1zaXplPSIxMyIgbGVuZ3RoQWRqdXN0PSJzcGFjaW5nIiB0ZXh0TGVuZ3RoPSIxNjYiIHg9IjM2NC41IiB5PSI4OS43MDMxIj5AYnJpZWYgc29ja2V0IGZkJiMxOTk3ODsmIzE5OTc5OyYjMjU5OTE7JiMzMTg2NzssPC90ZXh0Pjx0ZXh0IGZpbGw9IiMwMDAwMDAiIGZvbnQtZmFtaWx5PSJzYW5zLXNlcmlmIiBmb250LXNpemU9IjEzIiBsZW5ndGhBZGp1c3Q9InNwYWNpbmciIHRleHRMZW5ndGg9IjIyNiIgeD0iMzY0LjUiIHk9IjEwMy42MTcyIj4mIzI3NTk5OyYjMjAwMTA7c29ja2V0X2ZkJiMzNzExNzsmIzIzNTQ1OyYjMjQyMTI7JiMxOTk2ODsmIzIwMDEwO0ZkQ29udGV4dCYjNjUyOTI7PC90ZXh0Pjx0ZXh0IGZpbGw9IiMwMDAwMDAiIGZvbnQtZmFtaWx5PSJzYW5zLXNlcmlmIiBmb250LXNpemU9IjEzIiBsZW5ndGhBZGp1c3Q9InNwYWNpbmciIHRleHRMZW5ndGg9IjE1NiIgeD0iMzY0LjUiIHk9IjExNy41MzEzIj4mIzIxMjUzOyYjMjUzMjQ7ZmQmIzMwMzQwOyYjMjA1NDA7JiM2NTI5MjtmZCYjMTk5Nzg7JiMzMDM0MDsmIzIwMTA3OyYjMjAyMTQ7JiM2NTI5Mjs8L3RleHQ+PHRleHQgZmlsbD0iIzAwMDAwMCIgZm9udC1mYW1pbHk9InNhbnMtc2VyaWYiIGZvbnQtc2l6ZT0iMTMiIGxlbmd0aEFkanVzdD0ic3BhY2luZyIgdGV4dExlbmd0aD0iMTQzIiB4PSIzNjQuNSIgeT0iMTMxLjQ0NTMiPiYjMjAxOTc7JiMyMTQ1MDtmZCYjMzAzNDA7JiMzNTgzNTsmIzIwODg5OyYjMjAxMDc7JiMyMDIxNDsmIzE5OTc4OyYjMTk5Nzk7JiMyNTk5MTs8L3RleHQ+PC9nPjwhLS1TUkM9W0l5djlCMnZNUzRqbnBpeWhJUXFlS1FaY0tlMjJhaWcycjlKS0QwTlZLZzA0WDBtMTJiZDM1UllNZlVRTG1GSWZmUVVNODBqZVczYUFnSTFJNHc2ZEIzeXBIUTRlakhZUk9oWEhvSUtMdzVmQVlaQkpxckVCbUVmbTY4cllIYjVnT1dlRWdWQVlwMThhTnNHMlpLZkJLUjFMQzQxSjN4Nlc2Mlpadi1fZFlmMjRYdUgyQmVYYnBTTExveU1MYnItSWdXMXFPcVE5R2R1UThaWXZSNm9HbWpSRVppaVhnSVdKNkFSNS1TZFBnSTF4ZC1wZVVoQVotemNxemtTUlQtam1GTGxWX3NKN0FlWGFWNWhBby1Rekp6VmxWQmZob2ZDVDNLMW5rNDdsel9IbUZVcmZWVFF6OVl0Yi1Rb01mbXJ4VzI5V2l1Mnk5eGt3ZC1wVTFiQm9QRlZJZl9yVE8yS2xya3otc1pPSjhXTXRLZTRoREl6NTBVSG8wMDAwXS0tPjwvZz48L3N2Zz4=;" vertex="1" parent="WIyWlLk6GJQsqaUBKTNV-1">
            <mxGeometry x="120" y="596" width="612" height="196" as="geometry" />
          </mxCell>
        </UserObject>
        <UserObject label="" plantUmlData="{&quot;data&quot;:&quot;@startuml\n\nclass Scheduler {\n    typedef std::shared_ptr&lt;Scheduler&gt; ptr;\n    typedef Mutex MutexType;\n    Scheduler(size_t threads, bool use_caller, const std::string &amp;name);\n    virtual ~Scheduler();\n    const std::string &amp;getName() const;\n    static Scheduler *GetThis();\n    static Fiber *GetMainFiber();\n    template &lt;class FiberOrCb&gt;\n    void schedule(FiberOrCb fc, int thread = -1);\n    void start();\n    void stop();\n    virtual void tickle();\n    void run();\n    virtual void idle();\n    virtual bool stopping();\n    void setThis();\n    bool hasIdleThreads();\n    template &lt;class FiberOrCb&gt;\n    bool scheduleNoLock(FiberOrCb fc, int thread);\n    std::string m_name;\n    MutexType m_mutex;\n    std::vector&lt;Thread::ptr&gt; m_threads;\n    std::list&lt;ScheduleTask&gt; m_tasks;\n    std::vector&lt;int&gt; m_threadIds;\n    size_t m_threadCount = 0;\n    std::atomic&lt;size_t&gt; m_activeThreadCount = {0};\n    std::atomic&lt;size_t&gt; m_idleThreadCount = {0};\n    bool m_useCaller;\n    Fiber::ptr m_rootFiber;\n    int m_rootThread = 0;\n    bool m_stopping = false;\n}\n\nnote right of Scheduler\n&lt;&lt; Scheduler &gt;&gt;\n@brief 协程调度器\n封装的是N-M的协程调度器\n内部有一个线程池,支持协程在线程池里面切换\nend note\n\n@enduml&quot;,&quot;format&quot;:&quot;svg&quot;}" id="EvpxWQEOAeNcwRCwze3R-7">
          <mxCell style="shape=image;noLabel=1;verticalAlign=top;aspect=fixed;imageAspect=0;image=data:image/svg+xml,PD94bWwgdmVyc2lvbj0iMS4wIiBlbmNvZGluZz0idXMtYXNjaWkiIHN0YW5kYWxvbmU9Im5vIj8+PHN2ZyB4bWxucz0iaHR0cDovL3d3dy53My5vcmcvMjAwMC9zdmciIHhtbG5zOnhsaW5rPSJodHRwOi8vd3d3LnczLm9yZy8xOTk5L3hsaW5rIiBjb250ZW50U3R5bGVUeXBlPSJ0ZXh0L2NzcyIgaGVpZ2h0PSI1MjZweCIgcHJlc2VydmVBc3BlY3RSYXRpbz0ibm9uZSIgc3R5bGU9IndpZHRoOjgyOHB4O2hlaWdodDo1MjZweDtiYWNrZ3JvdW5kOiNGRkZGRkY7IiB2ZXJzaW9uPSIxLjEiIHZpZXdCb3g9IjAgMCA4MjggNTI2IiB3aWR0aD0iODI4cHgiIHpvb21BbmRQYW49Im1hZ25pZnkiPjxkZWZzLz48Zz48IS0tY2xhc3MgU2NoZWR1bGVyLS0+PGcgaWQ9ImVsZW1fU2NoZWR1bGVyIj48cmVjdCBjb2RlTGluZT0iMSIgZmlsbD0iI0YxRjFGMSIgaGVpZ2h0PSI1MTIuNTE1NiIgaWQ9IlNjaGVkdWxlciIgcng9IjIuNSIgcnk9IjIuNSIgc3R5bGU9InN0cm9rZTojMTgxODE4O3N0cm9rZS13aWR0aDowLjU7IiB3aWR0aD0iNDkyIiB4PSI3IiB5PSI3Ii8+PGVsbGlwc2UgY3g9IjIxNy4yNSIgY3k9IjIzIiBmaWxsPSIjQUREMUIyIiByeD0iMTEiIHJ5PSIxMSIgc3R5bGU9InN0cm9rZTojMTgxODE4O3N0cm9rZS13aWR0aDoxLjA7Ii8+PHBhdGggZD0iTTIxNC44NzUsMjcuMjUgTDIxNC44NzUsMjkgTDIxOS44MTI1LDI5IEwyMTkuODEyNSwyNy4yNSBMMjE0Ljg3NSwyNy4yNSBaIE0yMTUuNTYyNSwyNy45Mzc1IFEyMTUuNTYyNSwyNy45Mzc1IDIxNS41NjI1LDE4Ljc1IEwyMTMuODEyNSwxOC43NSBRMjEzLjgxMjUsMTguNzUgMjEzLjgxMjUsMjcuOTM3NSBMMjE1LjU2MjUsMjcuOTM3NSBaIE0yMTkuMTI1LDI3LjkzNzUgTDIyMC44NzUsMjcuOTM3NSBRMjIwLjg3NSwyNy45Mzc1IDIyMC44NzUsMjUuMTI1IEwyMTkuMTI1LDI1LjEyNSBRMjE5LjEyNSwyNS4xMjUgMjE5LjEyNSwyNy45Mzc1IFogTTIxOS4xMjUsMTguNzUgUTIxOS4xMjUsMTguNzUgMjE5LjEyNSwyMS41NjI1IEwyMjAuODc1LDIxLjU2MjUgUTIyMC44NzUsMjEuNTYyNSAyMjAuODc1LDE4Ljc1IEwyMTkuMTI1LDE4Ljc1IFogTTIxNC44NzUsMTkuNDM3NSBMMjE5LjgxMjUsMTkuNDM3NSBMMjE5LjgxMjUsMTcuNjg3NSBMMjE0Ljg3NSwxNy42ODc1IEwyMTQuODc1LDE5LjQzNzUgWiAiIGZpbGw9IiMwMDAwMDAiLz48dGV4dCBmaWxsPSIjMDAwMDAwIiBmb250LWZhbWlseT0ic2Fucy1zZXJpZiIgZm9udC1zaXplPSIxNCIgbGVuZ3RoQWRqdXN0PSJzcGFjaW5nIiB0ZXh0TGVuZ3RoPSI2MyIgeD0iMjM3Ljc1IiB5PSIyOC43NDIyIj5TY2hlZHVsZXI8L3RleHQ+PGxpbmUgc3R5bGU9InN0cm9rZTojMTgxODE4O3N0cm9rZS13aWR0aDowLjU7IiB4MT0iOCIgeDI9IjQ5OCIgeTE9IjM5IiB5Mj0iMzkiLz48dGV4dCBmaWxsPSIjMDAwMDAwIiBmb250LWZhbWlseT0ic2Fucy1zZXJpZiIgZm9udC1zaXplPSIxNCIgbGVuZ3RoQWRqdXN0PSJzcGFjaW5nIiB0ZXh0TGVuZ3RoPSIyNzQiIHg9IjEzIiB5PSI1Ni4yMzQ0Ij50eXBlZGVmIHN0ZDo6c2hhcmVkX3B0ciZsdDtTY2hlZHVsZXImZ3Q7IHB0cjs8L3RleHQ+PHRleHQgZmlsbD0iIzAwMDAwMCIgZm9udC1mYW1pbHk9InNhbnMtc2VyaWYiIGZvbnQtc2l6ZT0iMTQiIGxlbmd0aEFkanVzdD0ic3BhY2luZyIgdGV4dExlbmd0aD0iMTY5IiB4PSIxMyIgeT0iNzEuMjE4OCI+dHlwZWRlZiBNdXRleCBNdXRleFR5cGU7PC90ZXh0Pjx0ZXh0IGZpbGw9IiMwMDAwMDAiIGZvbnQtZmFtaWx5PSJzYW5zLXNlcmlmIiBmb250LXNpemU9IjE0IiBsZW5ndGhBZGp1c3Q9InNwYWNpbmciIHRleHRMZW5ndGg9IjE4MyIgeD0iMTMiIHk9Ijg2LjIwMzEiPnRlbXBsYXRlICZsdDtjbGFzcyBGaWJlck9yQ2ImZ3Q7PC90ZXh0Pjx0ZXh0IGZpbGw9IiMwMDAwMDAiIGZvbnQtZmFtaWx5PSJzYW5zLXNlcmlmIiBmb250LXNpemU9IjE0IiBsZW5ndGhBZGp1c3Q9InNwYWNpbmciIHRleHRMZW5ndGg9IjE4MyIgeD0iMTMiIHk9IjEwMS4xODc1Ij50ZW1wbGF0ZSAmbHQ7Y2xhc3MgRmliZXJPckNiJmd0OzwvdGV4dD48dGV4dCBmaWxsPSIjMDAwMDAwIiBmb250LWZhbWlseT0ic2Fucy1zZXJpZiIgZm9udC1zaXplPSIxNCIgbGVuZ3RoQWRqdXN0PSJzcGFjaW5nIiB0ZXh0TGVuZ3RoPSIxMzYiIHg9IjEzIiB5PSIxMTYuMTcxOSI+c3RkOjpzdHJpbmcgbV9uYW1lOzwvdGV4dD48dGV4dCBmaWxsPSIjMDAwMDAwIiBmb250LWZhbWlseT0ic2Fucy1zZXJpZiIgZm9udC1zaXplPSIxNCIgbGVuZ3RoQWRqdXN0PSJzcGFjaW5nIiB0ZXh0TGVuZ3RoPSIxMjkiIHg9IjEzIiB5PSIxMzEuMTU2MyI+TXV0ZXhUeXBlIG1fbXV0ZXg7PC90ZXh0Pjx0ZXh0IGZpbGw9IiMwMDAwMDAiIGZvbnQtZmFtaWx5PSJzYW5zLXNlcmlmIiBmb250LXNpemU9IjE0IiBsZW5ndGhBZGp1c3Q9InNwYWNpbmciIHRleHRMZW5ndGg9IjI0NyIgeD0iMTMiIHk9IjE0Ni4xNDA2Ij5zdGQ6OnZlY3RvciZsdDtUaHJlYWQ6OnB0ciZndDsgbV90aHJlYWRzOzwvdGV4dD48dGV4dCBmaWxsPSIjMDAwMDAwIiBmb250LWZhbWlseT0ic2Fucy1zZXJpZiIgZm9udC1zaXplPSIxNCIgbGVuZ3RoQWRqdXN0PSJzcGFjaW5nIiB0ZXh0TGVuZ3RoPSIyMjYiIHg9IjEzIiB5PSIxNjEuMTI1Ij5zdGQ6Omxpc3QmbHQ7U2NoZWR1bGVUYXNrJmd0OyBtX3Rhc2tzOzwvdGV4dD48dGV4dCBmaWxsPSIjMDAwMDAwIiBmb250LWZhbWlseT0ic2Fucy1zZXJpZiIgZm9udC1zaXplPSIxNCIgbGVuZ3RoQWRqdXN0PSJzcGFjaW5nIiB0ZXh0TGVuZ3RoPSIyMDUiIHg9IjEzIiB5PSIxNzYuMTA5NCI+c3RkOjp2ZWN0b3ImbHQ7aW50Jmd0OyBtX3RocmVhZElkczs8L3RleHQ+PHRleHQgZmlsbD0iIzAwMDAwMCIgZm9udC1mYW1pbHk9InNhbnMtc2VyaWYiIGZvbnQtc2l6ZT0iMTQiIGxlbmd0aEFkanVzdD0ic3BhY2luZyIgdGV4dExlbmd0aD0iMTc3IiB4PSIxMyIgeT0iMTkxLjA5MzgiPnNpemVfdCBtX3RocmVhZENvdW50ID0gMDs8L3RleHQ+PHRleHQgZmlsbD0iIzAwMDAwMCIgZm9udC1mYW1pbHk9InNhbnMtc2VyaWYiIGZvbnQtc2l6ZT0iMTQiIGxlbmd0aEFkanVzdD0ic3BhY2luZyIgdGV4dExlbmd0aD0iMzI3IiB4PSIxMyIgeT0iMjA2LjA3ODEiPnN0ZDo6YXRvbWljJmx0O3NpemVfdCZndDsgbV9hY3RpdmVUaHJlYWRDb3VudCA9IHswfTs8L3RleHQ+PHRleHQgZmlsbD0iIzAwMDAwMCIgZm9udC1mYW1pbHk9InNhbnMtc2VyaWYiIGZvbnQtc2l6ZT0iMTQiIGxlbmd0aEFkanVzdD0ic3BhY2luZyIgdGV4dExlbmd0aD0iMzEzIiB4PSIxMyIgeT0iMjIxLjA2MjUiPnN0ZDo6YXRvbWljJmx0O3NpemVfdCZndDsgbV9pZGxlVGhyZWFkQ291bnQgPSB7MH07PC90ZXh0Pjx0ZXh0IGZpbGw9IiMwMDAwMDAiIGZvbnQtZmFtaWx5PSJzYW5zLXNlcmlmIiBmb250LXNpemU9IjE0IiBsZW5ndGhBZGp1c3Q9InNwYWNpbmciIHRleHRMZW5ndGg9IjEyMSIgeD0iMTMiIHk9IjIzNi4wNDY5Ij5ib29sIG1fdXNlQ2FsbGVyOzwvdGV4dD48dGV4dCBmaWxsPSIjMDAwMDAwIiBmb250LWZhbWlseT0ic2Fucy1zZXJpZiIgZm9udC1zaXplPSIxNCIgbGVuZ3RoQWRqdXN0PSJzcGFjaW5nIiB0ZXh0TGVuZ3RoPSIxNjMiIHg9IjEzIiB5PSIyNTEuMDMxMyI+RmliZXI6OnB0ciBtX3Jvb3RGaWJlcjs8L3RleHQ+PHRleHQgZmlsbD0iIzAwMDAwMCIgZm9udC1mYW1pbHk9InNhbnMtc2VyaWYiIGZvbnQtc2l6ZT0iMTQiIGxlbmd0aEFkanVzdD0ic3BhY2luZyIgdGV4dExlbmd0aD0iMTQ5IiB4PSIxMyIgeT0iMjY2LjAxNTYiPmludCBtX3Jvb3RUaHJlYWQgPSAwOzwvdGV4dD48dGV4dCBmaWxsPSIjMDAwMDAwIiBmb250LWZhbWlseT0ic2Fucy1zZXJpZiIgZm9udC1zaXplPSIxNCIgbGVuZ3RoQWRqdXN0PSJzcGFjaW5nIiB0ZXh0TGVuZ3RoPSIxNzAiIHg9IjEzIiB5PSIyODEiPmJvb2wgbV9zdG9wcGluZyA9IGZhbHNlOzwvdGV4dD48bGluZSBzdHlsZT0ic3Ryb2tlOiMxODE4MTg7c3Ryb2tlLXdpZHRoOjAuNTsiIHgxPSI4IiB4Mj0iNDk4IiB5MT0iMjg2Ljc1IiB5Mj0iMjg2Ljc1Ii8+PHRleHQgZmlsbD0iIzAwMDAwMCIgZm9udC1mYW1pbHk9InNhbnMtc2VyaWYiIGZvbnQtc2l6ZT0iMTQiIGxlbmd0aEFkanVzdD0ic3BhY2luZyIgdGV4dExlbmd0aD0iNDgwIiB4PSIxMyIgeT0iMzAzLjk4NDQiPlNjaGVkdWxlcihzaXplX3QgdGhyZWFkcywgYm9vbCB1c2VfY2FsbGVyLCBjb25zdCBzdGQ6OnN0cmluZyAmYW1wO25hbWUpOzwvdGV4dD48dGV4dCBmaWxsPSIjMDAwMDAwIiBmb250LWZhbWlseT0ic2Fucy1zZXJpZiIgZm9udC1zaXplPSIxNCIgbGVuZ3RoQWRqdXN0PSJzcGFjaW5nIiB0ZXh0TGVuZ3RoPSIxNTAiIHg9IjEzIiB5PSIzMTguOTY4OCI+dmlydHVhbCB+U2NoZWR1bGVyKCk7PC90ZXh0Pjx0ZXh0IGZpbGw9IiMwMDAwMDAiIGZvbnQtZmFtaWx5PSJzYW5zLXNlcmlmIiBmb250LXNpemU9IjE0IiBsZW5ndGhBZGp1c3Q9InNwYWNpbmciIHRleHRMZW5ndGg9IjI0OSIgeD0iMTMiIHk9IjMzMy45NTMxIj5jb25zdCBzdGQ6OnN0cmluZyAmYW1wO2dldE5hbWUoKSBjb25zdDs8L3RleHQ+PHRleHQgZmlsbD0iIzAwMDAwMCIgZm9udC1mYW1pbHk9InNhbnMtc2VyaWYiIGZvbnQtc2l6ZT0iMTQiIGxlbmd0aEFkanVzdD0ic3BhY2luZyIgdGV4dExlbmd0aD0iMTk5IiB4PSIxMyIgeT0iMzQ4LjkzNzUiPnN0YXRpYyBTY2hlZHVsZXIgKkdldFRoaXMoKTs8L3RleHQ+PHRleHQgZmlsbD0iIzAwMDAwMCIgZm9udC1mYW1pbHk9InNhbnMtc2VyaWYiIGZvbnQtc2l6ZT0iMTQiIGxlbmd0aEFkanVzdD0ic3BhY2luZyIgdGV4dExlbmd0aD0iMjA2IiB4PSIxMyIgeT0iMzYzLjkyMTkiPnN0YXRpYyBGaWJlciAqR2V0TWFpbkZpYmVyKCk7PC90ZXh0Pjx0ZXh0IGZpbGw9IiMwMDAwMDAiIGZvbnQtZmFtaWx5PSJzYW5zLXNlcmlmIiBmb250LXNpemU9IjE0IiBsZW5ndGhBZGp1c3Q9InNwYWNpbmciIHRleHRMZW5ndGg9IjMxOCIgeD0iMTMiIHk9IjM3OC45MDYzIj52b2lkIHNjaGVkdWxlKEZpYmVyT3JDYiBmYywgaW50IHRocmVhZCA9IC0xKTs8L3RleHQ+PHRleHQgZmlsbD0iIzAwMDAwMCIgZm9udC1mYW1pbHk9InNhbnMtc2VyaWYiIGZvbnQtc2l6ZT0iMTQiIGxlbmd0aEFkanVzdD0ic3BhY2luZyIgdGV4dExlbmd0aD0iOTQiIHg9IjEzIiB5PSIzOTMuODkwNiI+dm9pZCBzdGFydCgpOzwvdGV4dD48dGV4dCBmaWxsPSIjMDAwMDAwIiBmb250LWZhbWlseT0ic2Fucy1zZXJpZiIgZm9udC1zaXplPSIxNCIgbGVuZ3RoQWRqdXN0PSJzcGFjaW5nIiB0ZXh0TGVuZ3RoPSI4NyIgeD0iMTMiIHk9IjQwOC44NzUiPnZvaWQgc3RvcCgpOzwvdGV4dD48dGV4dCBmaWxsPSIjMDAwMDAwIiBmb250LWZhbWlseT0ic2Fucy1zZXJpZiIgZm9udC1zaXplPSIxNCIgbGVuZ3RoQWRqdXN0PSJzcGFjaW5nIiB0ZXh0TGVuZ3RoPSIxNTciIHg9IjEzIiB5PSI0MjMuODU5NCI+dmlydHVhbCB2b2lkIHRpY2tsZSgpOzwvdGV4dD48dGV4dCBmaWxsPSIjMDAwMDAwIiBmb250LWZhbWlseT0ic2Fucy1zZXJpZiIgZm9udC1zaXplPSIxNCIgbGVuZ3RoQWRqdXN0PSJzcGFjaW5nIiB0ZXh0TGVuZ3RoPSI4MCIgeD0iMTMiIHk9IjQzOC44NDM4Ij52b2lkIHJ1bigpOzwvdGV4dD48dGV4dCBmaWxsPSIjMDAwMDAwIiBmb250LWZhbWlseT0ic2Fucy1zZXJpZiIgZm9udC1zaXplPSIxNCIgbGVuZ3RoQWRqdXN0PSJzcGFjaW5nIiB0ZXh0TGVuZ3RoPSIxNDMiIHg9IjEzIiB5PSI0NTMuODI4MSI+dmlydHVhbCB2b2lkIGlkbGUoKTs8L3RleHQ+PHRleHQgZmlsbD0iIzAwMDAwMCIgZm9udC1mYW1pbHk9InNhbnMtc2VyaWYiIGZvbnQtc2l6ZT0iMTQiIGxlbmd0aEFkanVzdD0ic3BhY2luZyIgdGV4dExlbmd0aD0iMTcxIiB4PSIxMyIgeT0iNDY4LjgxMjUiPnZpcnR1YWwgYm9vbCBzdG9wcGluZygpOzwvdGV4dD48dGV4dCBmaWxsPSIjMDAwMDAwIiBmb250LWZhbWlseT0ic2Fucy1zZXJpZiIgZm9udC1zaXplPSIxNCIgbGVuZ3RoQWRqdXN0PSJzcGFjaW5nIiB0ZXh0TGVuZ3RoPSIxMDgiIHg9IjEzIiB5PSI0ODMuNzk2OSI+dm9pZCBzZXRUaGlzKCk7PC90ZXh0Pjx0ZXh0IGZpbGw9IiMwMDAwMDAiIGZvbnQtZmFtaWx5PSJzYW5zLXNlcmlmIiBmb250LXNpemU9IjE0IiBsZW5ndGhBZGp1c3Q9InNwYWNpbmciIHRleHRMZW5ndGg9IjE1NyIgeD0iMTMiIHk9IjQ5OC43ODEzIj5ib29sIGhhc0lkbGVUaHJlYWRzKCk7PC90ZXh0Pjx0ZXh0IGZpbGw9IiMwMDAwMDAiIGZvbnQtZmFtaWx5PSJzYW5zLXNlcmlmIiBmb250LXNpemU9IjE0IiBsZW5ndGhBZGp1c3Q9InNwYWNpbmciIHRleHRMZW5ndGg9IjMyNSIgeD0iMTMiIHk9IjUxMy43NjU2Ij5ib29sIHNjaGVkdWxlTm9Mb2NrKEZpYmVyT3JDYiBmYywgaW50IHRocmVhZCk7PC90ZXh0PjwvZz48ZyBpZD0iZWxlbV9HTU4zIj48cGF0aCBkPSJNNTM0LjUsMjMwLjUgTDUzNC41LDI1OS41IEw0OTkuMTIsMjYzLjUgTDUzNC41LDI2Ny41IEw1MzQuNSwyOTYuMTU2MyBBMCwwIDAgMCAwIDUzNC41LDI5Ni4xNTYzIEw4MjEuNSwyOTYuMTU2MyBBMCwwIDAgMCAwIDgyMS41LDI5Ni4xNTYzIEw4MjEuNSwyNDAuNSBMODExLjUsMjMwLjUgTDUzNC41LDIzMC41IEEwLDAgMCAwIDAgNTM0LjUsMjMwLjUgIiBmaWxsPSIjRkVGRkREIiBzdHlsZT0ic3Ryb2tlOiMxODE4MTg7c3Ryb2tlLXdpZHRoOjAuNTsiLz48cGF0aCBkPSJNODExLjUsMjMwLjUgTDgxMS41LDI0MC41IEw4MjEuNSwyNDAuNSBMODExLjUsMjMwLjUgIiBmaWxsPSIjRkVGRkREIiBzdHlsZT0ic3Ryb2tlOiMxODE4MTg7c3Ryb2tlLXdpZHRoOjAuNTsiLz48dGV4dCBmaWxsPSIjMDAwMDAwIiBmb250LWZhbWlseT0ic2Fucy1zZXJpZiIgZm9udC1zaXplPSIxMyIgbGVuZ3RoQWRqdXN0PSJzcGFjaW5nIiB0ZXh0TGVuZ3RoPSI3NiIgeD0iNTQwLjUiIHk9IjI0Ny43ODkxIj4mIzE3MTtTY2hlZHVsZXImIzE4Nzs8L3RleHQ+PHRleHQgZmlsbD0iIzAwMDAwMCIgZm9udC1mYW1pbHk9InNhbnMtc2VyaWYiIGZvbnQtc2l6ZT0iMTMiIGxlbmd0aEFkanVzdD0ic3BhY2luZyIgdGV4dExlbmd0aD0iMTEyIiB4PSI1NDAuNSIgeT0iMjYxLjcwMzEiPkBicmllZiAmIzIxMzI3OyYjMzEyNDM7JiMzNTg0MzsmIzI0MjMwOyYjMjIxMjA7PC90ZXh0Pjx0ZXh0IGZpbGw9IiMwMDAwMDAiIGZvbnQtZmFtaWx5PSJzYW5zLXNlcmlmIiBmb250LXNpemU9IjEzIiBsZW5ndGhBZGp1c3Q9InNwYWNpbmciIHRleHRMZW5ndGg9IjE1MSIgeD0iNTQwLjUiIHk9IjI3NS42MTcyIj4mIzIzNTUzOyYjMzUwMTM7JiMzMDM0MDsmIzI2MTU5O04tTSYjMzAzNDA7JiMyMTMyNzsmIzMxMjQzOyYjMzU4NDM7JiMyNDIzMDsmIzIyMTIwOzwvdGV4dD48dGV4dCBmaWxsPSIjMDAwMDAwIiBmb250LWZhbWlseT0ic2Fucy1zZXJpZiIgZm9udC1zaXplPSIxMyIgbGVuZ3RoQWRqdXN0PSJzcGFjaW5nIiB0ZXh0TGVuZ3RoPSIyNjYiIHg9IjU0MC41IiB5PSIyODkuNTMxMyI+JiMyMDg2OTsmIzM3MDk2OyYjMjYzNzc7JiMxOTk2ODsmIzIwMDEwOyYjMzI0NDc7JiMzMTI0MzsmIzI3NzQ0OywmIzI1OTAzOyYjMjUzNDU7JiMyMTMyNzsmIzMxMjQzOyYjMjIzMTI7JiMzMjQ0NzsmIzMxMjQzOyYjMjc3NDQ7JiMzNzMyNDsmIzM4NzU0OyYjMjA5OTk7JiMyNTQ0Mjs8L3RleHQ+PC9nPjwhLS1TUkM9W1pMRjFSakQwNEJ0eEFfUTRLZkhBdUhoUzIyYUlnMTg5MXRBRkRrakRsOGhqWk5SNzRMMExLUExJNEFyd3VHMmVJQVg4QUVCSVNnand1TVRnZl9hQm5oa3N1djIyb0M2bnZ4cnZFX0RzWFdMS1FfQUstVG9CMHd4OFphRm0xeXlkdEVEM2VpNWhEaExGNVZWdzRyMWtvTWlIX0JvX21rdDRtOV9QUG16MzVZbUpRYmd5dTdxV3UyakVGTHFkMG9hMzRjbFVQcEgwbDR3T1ozSmE5dThJcU9aU1lNWjhEd3BHTDJZOFFLMVVCWExwdjlReTRPU2tmak9zQjZYdjZZVzhMY2RyeFlDRUZMX2VHWVdkRjFJMzdFbkc0UGNsV1c0eWQwR0tFNzZQaVNzMEpySHhxQjhySWs0SGRVbE5JZjBDTVBzOGdFWVRSOTdEVXFMTjlXRWVXamZnSDR2Z1ZwSGswQW5sWkQ5TGhlZ1pNd2QyZ24xcG03WVVZS19HZmpLSkx3cW1IOV9nUkhKZnNIbHhKbV9pNFJhN05WYk9pbDVWZElYek5ydlRzQ19rdENSQktTOWVjQnJOdzVGRUcyaE5yalBpdVoyc2E5S0ZMdUtOMjB0YnJGUWU3WGlRX2tqckNJbmlBUjlUb2pZdkJVOWo2TUZ6TXdISG9RU1dHeTVTb3ltYUEwQ25wT3FoNGRPUWtfekE0UU5KUW1kNnFoMkZrejhzZ3NBWm5iSkpFTTlBSVowMVlzS01zczJsNkJkNlliT24wbVdDUVEzSHk1dDdZSUpVZ1g4Wjd1V1NCbFY0U1R0QXFoSFFwZUUxNGhabG9WNzlWRlItdmM4X2tWZ1VWOWV2b1NOVXBSVTMtVVZOd1NWcHhjTzdOek9PUm11TS14RnF6RHRydlFsaG9uX3Bncnk4ZnAtX3JqQ0Z2LWRIZGdLZGZ4Q0lNMW1VQlJ3UzlNeUZxLUNwWHFTVW9LaHkzRzAwXS0tPjwvZz48L3N2Zz4=;" vertex="1" parent="WIyWlLk6GJQsqaUBKTNV-1">
            <mxGeometry x="-840" y="770" width="828" height="526" as="geometry" />
          </mxCell>
        </UserObject>
        <UserObject label="" plantUmlData="{&quot;data&quot;:&quot;@startuml\n\nclass ScheduleTask {\n        Fiber::ptr fiber;\n        std::function&lt;void()&gt; cb;\n        int thread;\n        ScheduleTask(Fiber::ptr f, int thr);\n        ScheduleTask(Fiber::ptr *f, int thr);\n        ScheduleTask(std::function&lt;void()&gt; f, int thr);\n        ScheduleTask();\n\n        void reset();\n}\n\nnote right of ScheduleTask\n&lt;&lt; ScheduleTask &gt;&gt;\n@brief 调度任务，协程/函数二选一，\n可指定在哪个线程上调度\nend note\n\n@enduml&quot;,&quot;format&quot;:&quot;svg&quot;}" id="EvpxWQEOAeNcwRCwze3R-8">
          <mxCell style="shape=image;noLabel=1;verticalAlign=top;aspect=fixed;imageAspect=0;image=data:image/svg+xml,PD94bWwgdmVyc2lvbj0iMS4wIiBlbmNvZGluZz0idXMtYXNjaWkiIHN0YW5kYWxvbmU9Im5vIj8+PHN2ZyB4bWxucz0iaHR0cDovL3d3dy53My5vcmcvMjAwMC9zdmciIHhtbG5zOnhsaW5rPSJodHRwOi8vd3d3LnczLm9yZy8xOTk5L3hsaW5rIiBjb250ZW50U3R5bGVUeXBlPSJ0ZXh0L2NzcyIgaGVpZ2h0PSIxOTZweCIgcHJlc2VydmVBc3BlY3RSYXRpbz0ibm9uZSIgc3R5bGU9IndpZHRoOjYzOXB4O2hlaWdodDoxOTZweDtiYWNrZ3JvdW5kOiNGRkZGRkY7IiB2ZXJzaW9uPSIxLjEiIHZpZXdCb3g9IjAgMCA2MzkgMTk2IiB3aWR0aD0iNjM5cHgiIHpvb21BbmRQYW49Im1hZ25pZnkiPjxkZWZzLz48Zz48IS0tY2xhc3MgU2NoZWR1bGVUYXNrLS0+PGcgaWQ9ImVsZW1fU2NoZWR1bGVUYXNrIj48cmVjdCBjb2RlTGluZT0iMSIgZmlsbD0iI0YxRjFGMSIgaGVpZ2h0PSIxODIuODU5NCIgaWQ9IlNjaGVkdWxlVGFzayIgcng9IjIuNSIgcnk9IjIuNSIgc3R5bGU9InN0cm9rZTojMTgxODE4O3N0cm9rZS13aWR0aDowLjU7IiB3aWR0aD0iMzQ2IiB4PSI3IiB5PSI3Ii8+PGVsbGlwc2UgY3g9IjEzMy43NSIgY3k9IjIzIiBmaWxsPSIjQUREMUIyIiByeD0iMTEiIHJ5PSIxMSIgc3R5bGU9InN0cm9rZTojMTgxODE4O3N0cm9rZS13aWR0aDoxLjA7Ii8+PHBhdGggZD0iTTEzMS4zNzUsMjcuMjUgTDEzMS4zNzUsMjkgTDEzNi4zMTI1LDI5IEwxMzYuMzEyNSwyNy4yNSBMMTMxLjM3NSwyNy4yNSBaIE0xMzIuMDYyNSwyNy45Mzc1IFExMzIuMDYyNSwyNy45Mzc1IDEzMi4wNjI1LDE4Ljc1IEwxMzAuMzEyNSwxOC43NSBRMTMwLjMxMjUsMTguNzUgMTMwLjMxMjUsMjcuOTM3NSBMMTMyLjA2MjUsMjcuOTM3NSBaIE0xMzUuNjI1LDI3LjkzNzUgTDEzNy4zNzUsMjcuOTM3NSBRMTM3LjM3NSwyNy45Mzc1IDEzNy4zNzUsMjUuMTI1IEwxMzUuNjI1LDI1LjEyNSBRMTM1LjYyNSwyNS4xMjUgMTM1LjYyNSwyNy45Mzc1IFogTTEzNS42MjUsMTguNzUgUTEzNS42MjUsMTguNzUgMTM1LjYyNSwyMS41NjI1IEwxMzcuMzc1LDIxLjU2MjUgUTEzNy4zNzUsMjEuNTYyNSAxMzcuMzc1LDE4Ljc1IEwxMzUuNjI1LDE4Ljc1IFogTTEzMS4zNzUsMTkuNDM3NSBMMTM2LjMxMjUsMTkuNDM3NSBMMTM2LjMxMjUsMTcuNjg3NSBMMTMxLjM3NSwxNy42ODc1IEwxMzEuMzc1LDE5LjQzNzUgWiAiIGZpbGw9IiMwMDAwMDAiLz48dGV4dCBmaWxsPSIjMDAwMDAwIiBmb250LWZhbWlseT0ic2Fucy1zZXJpZiIgZm9udC1zaXplPSIxNCIgbGVuZ3RoQWRqdXN0PSJzcGFjaW5nIiB0ZXh0TGVuZ3RoPSI4NCIgeD0iMTU0LjI1IiB5PSIyOC43NDIyIj5TY2hlZHVsZVRhc2s8L3RleHQ+PGxpbmUgc3R5bGU9InN0cm9rZTojMTgxODE4O3N0cm9rZS13aWR0aDowLjU7IiB4MT0iOCIgeDI9IjM1MiIgeTE9IjM5IiB5Mj0iMzkiLz48dGV4dCBmaWxsPSIjMDAwMDAwIiBmb250LWZhbWlseT0ic2Fucy1zZXJpZiIgZm9udC1zaXplPSIxNCIgbGVuZ3RoQWRqdXN0PSJzcGFjaW5nIiB0ZXh0TGVuZ3RoPSIxMjAiIHg9IjEzIiB5PSI1Ni4yMzQ0Ij5GaWJlcjo6cHRyIGZpYmVyOzwvdGV4dD48dGV4dCBmaWxsPSIjMDAwMDAwIiBmb250LWZhbWlseT0ic2Fucy1zZXJpZiIgZm9udC1zaXplPSIxNCIgbGVuZ3RoQWRqdXN0PSJzcGFjaW5nIiB0ZXh0TGVuZ3RoPSI3OCIgeD0iMTMiIHk9IjcxLjIxODgiPmludCB0aHJlYWQ7PC90ZXh0PjxsaW5lIHN0eWxlPSJzdHJva2U6IzE4MTgxODtzdHJva2Utd2lkdGg6MC41OyIgeDE9IjgiIHgyPSIzNTIiIHkxPSI3Ni45Njg4IiB5Mj0iNzYuOTY4OCIvPjx0ZXh0IGZpbGw9IiMwMDAwMDAiIGZvbnQtZmFtaWx5PSJzYW5zLXNlcmlmIiBmb250LXNpemU9IjE0IiBsZW5ndGhBZGp1c3Q9InNwYWNpbmciIHRleHRMZW5ndGg9IjE3OCIgeD0iMTMiIHk9Ijk0LjIwMzEiPnN0ZDo6ZnVuY3Rpb24mbHQ7dm9pZCgpJmd0OyBjYjs8L3RleHQ+PHRleHQgZmlsbD0iIzAwMDAwMCIgZm9udC1mYW1pbHk9InNhbnMtc2VyaWYiIGZvbnQtc2l6ZT0iMTQiIGxlbmd0aEFkanVzdD0ic3BhY2luZyIgdGV4dExlbmd0aD0iMjU1IiB4PSIxMyIgeT0iMTA5LjE4NzUiPlNjaGVkdWxlVGFzayhGaWJlcjo6cHRyIGYsIGludCB0aHIpOzwvdGV4dD48dGV4dCBmaWxsPSIjMDAwMDAwIiBmb250LWZhbWlseT0ic2Fucy1zZXJpZiIgZm9udC1zaXplPSIxNCIgbGVuZ3RoQWRqdXN0PSJzcGFjaW5nIiB0ZXh0TGVuZ3RoPSIyNjIiIHg9IjEzIiB5PSIxMjQuMTcxOSI+U2NoZWR1bGVUYXNrKEZpYmVyOjpwdHIgKmYsIGludCB0aHIpOzwvdGV4dD48dGV4dCBmaWxsPSIjMDAwMDAwIiBmb250LWZhbWlseT0ic2Fucy1zZXJpZiIgZm9udC1zaXplPSIxNCIgbGVuZ3RoQWRqdXN0PSJzcGFjaW5nIiB0ZXh0TGVuZ3RoPSIzMzQiIHg9IjEzIiB5PSIxMzkuMTU2MyI+U2NoZWR1bGVUYXNrKHN0ZDo6ZnVuY3Rpb24mbHQ7dm9pZCgpJmd0OyBmLCBpbnQgdGhyKTs8L3RleHQ+PHRleHQgZmlsbD0iIzAwMDAwMCIgZm9udC1mYW1pbHk9InNhbnMtc2VyaWYiIGZvbnQtc2l6ZT0iMTQiIGxlbmd0aEFkanVzdD0ic3BhY2luZyIgdGV4dExlbmd0aD0iMTA4IiB4PSIxMyIgeT0iMTU0LjE0MDYiPlNjaGVkdWxlVGFzaygpOzwvdGV4dD48dGV4dCBmaWxsPSIjMDAwMDAwIiBmb250LWZhbWlseT0ic2Fucy1zZXJpZiIgZm9udC1zaXplPSIxNCIgbGVuZ3RoQWRqdXN0PSJzcGFjaW5nIiB0ZXh0TGVuZ3RoPSI3IiB4PSIxMyIgeT0iMTY5LjEyNSI+JiMxNjA7PC90ZXh0Pjx0ZXh0IGZpbGw9IiMwMDAwMDAiIGZvbnQtZmFtaWx5PSJzYW5zLXNlcmlmIiBmb250LXNpemU9IjE0IiBsZW5ndGhBZGp1c3Q9InNwYWNpbmciIHRleHRMZW5ndGg9Ijk0IiB4PSIxMyIgeT0iMTg0LjEwOTQiPnZvaWQgcmVzZXQoKTs8L3RleHQ+PC9nPjxnIGlkPSJlbGVtX0dNTjMiPjxwYXRoIGQ9Ik0zODgsNzIuNSBMMzg4LDk0LjUgTDM1My4wNiw5OC41IEwzODgsMTAyLjUgTDM4OCwxMjQuMjQyMiBBMCwwIDAgMCAwIDM4OCwxMjQuMjQyMiBMNjMyLDEyNC4yNDIyIEEwLDAgMCAwIDAgNjMyLDEyNC4yNDIyIEw2MzIsODIuNSBMNjIyLDcyLjUgTDM4OCw3Mi41IEEwLDAgMCAwIDAgMzg4LDcyLjUgIiBmaWxsPSIjRkVGRkREIiBzdHlsZT0ic3Ryb2tlOiMxODE4MTg7c3Ryb2tlLXdpZHRoOjAuNTsiLz48cGF0aCBkPSJNNjIyLDcyLjUgTDYyMiw4Mi41IEw2MzIsODIuNSBMNjIyLDcyLjUgIiBmaWxsPSIjRkVGRkREIiBzdHlsZT0ic3Ryb2tlOiMxODE4MTg7c3Ryb2tlLXdpZHRoOjAuNTsiLz48dGV4dCBmaWxsPSIjMDAwMDAwIiBmb250LWZhbWlseT0ic2Fucy1zZXJpZiIgZm9udC1zaXplPSIxMyIgbGVuZ3RoQWRqdXN0PSJzcGFjaW5nIiB0ZXh0TGVuZ3RoPSI5NiIgeD0iMzk0IiB5PSI4OS43ODkxIj4mIzE3MTtTY2hlZHVsZVRhc2smIzE4Nzs8L3RleHQ+PHRleHQgZmlsbD0iIzAwMDAwMCIgZm9udC1mYW1pbHk9InNhbnMtc2VyaWYiIGZvbnQtc2l6ZT0iMTMiIGxlbmd0aEFkanVzdD0ic3BhY2luZyIgdGV4dExlbmd0aD0iMjIzIiB4PSIzOTQiIHk9IjEwMy43MDMxIj5AYnJpZWYgJiMzNTg0MzsmIzI0MjMwOyYjMjAyMTk7JiMyMTE1MzsmIzY1MjkyOyYjMjEzMjc7JiMzMTI0MzsvJiMyMDk4OTsmIzI1OTY4OyYjMjAxMDg7JiMzNjg3MzsmIzE5OTY4OyYjNjUyOTI7PC90ZXh0Pjx0ZXh0IGZpbGw9IiMwMDAwMDAiIGZvbnQtZmFtaWx5PSJzYW5zLXNlcmlmIiBmb250LXNpemU9IjEzIiBsZW5ndGhBZGp1c3Q9InNwYWNpbmciIHRleHRMZW5ndGg9IjE0MyIgeD0iMzk0IiB5PSIxMTcuNjE3MiI+JiMyMTQ4NzsmIzI1MzUxOyYjMjM0NTA7JiMyMjMxMjsmIzIxNzM4OyYjMjAwMTA7JiMzMjQ0NzsmIzMxMjQzOyYjMTk5Nzg7JiMzNTg0MzsmIzI0MjMwOzwvdGV4dD48L2c+PCEtLVNSQz1bSXl2OUIydk0yNHhFSTRxZnBLYURJSXBFTGdaY0tlMDJqeW9hcjI4aGd1QUk4ZUtxNERDUUJiRFNhYzliYkxRUWJyb0ljUHpkS3ZRVmNRQVhRUVVHZDhIR2FQYk5lYjJJS1BJUWM4OEdHeFA2MHpibTdQWG9KU0FBakdZaG5rdXdtbGcwdWQwOWEydzVlakpZcjFBR1MycU5McnYtSVFmMktNUHdIZWIyVlhnQUZZdVI2ekdHakJGWlNhV2dvYW5ES3RZbmVWZGZoY0xGVGt6LXNoTm1fUHdVZnh0enByVHF3cHpqdF9qaXdlT2RrdGZVRGRHLXNUNDBiRTF3c2hfLU1LX3hxdE1wZGl2UHlOSm9nWVN4TFp0VmpILWV6aWNFQmVXUE5BYnZBR2VXRG0wMF0tLT48L2c+PC9zdmc+;" vertex="1" parent="WIyWlLk6GJQsqaUBKTNV-1">
            <mxGeometry x="-840" y="1340" width="639" height="196" as="geometry" />
          </mxCell>
        </UserObject>
        <UserObject label="" plantUmlData="{&quot;data&quot;:&quot;@startuml\n\nclass Timer\n{\n\n\nfriend class TimerManager;\n    typedef std::shared_ptr&lt;Timer&gt; ptr;\n    bool cancel();\n    bool refresh();\n    bool reset(uint64_t ms, bool from_now);\n    Timer(uint64_t ms, std::function&lt;void()&gt; cb,\n          bool recurring, TimerManager* manager);\n    Timer(uint64_t next);\n    bool m_recurring = false;\n    uint64_t m_ms = 0;\n    uint64_t m_next = 0;\n    std::function&lt;void()&gt; m_cb;\n    TimerManager* m_manager = nullptr;\n    struct Comparator;\n}\n\nnote right of Timer\n&lt;&lt; Timer &gt;&gt;\n@brief 定时器\nend note\n\n@enduml&quot;,&quot;format&quot;:&quot;svg&quot;}" id="EvpxWQEOAeNcwRCwze3R-9">
          <mxCell style="shape=image;noLabel=1;verticalAlign=top;aspect=fixed;imageAspect=0;image=data:image/svg+xml,PD94bWwgdmVyc2lvbj0iMS4wIiBlbmNvZGluZz0idXMtYXNjaWkiIHN0YW5kYWxvbmU9Im5vIj8+PHN2ZyB4bWxucz0iaHR0cDovL3d3dy53My5vcmcvMjAwMC9zdmciIHhtbG5zOnhsaW5rPSJodHRwOi8vd3d3LnczLm9yZy8xOTk5L3hsaW5rIiBjb250ZW50U3R5bGVUeXBlPSJ0ZXh0L2NzcyIgaGVpZ2h0PSIyNzFweCIgcHJlc2VydmVBc3BlY3RSYXRpbz0ibm9uZSIgc3R5bGU9IndpZHRoOjQ4MXB4O2hlaWdodDoyNzFweDtiYWNrZ3JvdW5kOiNGRkZGRkY7IiB2ZXJzaW9uPSIxLjEiIHZpZXdCb3g9IjAgMCA0ODEgMjcxIiB3aWR0aD0iNDgxcHgiIHpvb21BbmRQYW49Im1hZ25pZnkiPjxkZWZzLz48Zz48IS0tY2xhc3MgVGltZXItLT48ZyBpZD0iZWxlbV9UaW1lciI+PHJlY3QgY29kZUxpbmU9IjEiIGZpbGw9IiNGMUYxRjEiIGhlaWdodD0iMjU3Ljc4MTMiIGlkPSJUaW1lciIgcng9IjIuNSIgcnk9IjIuNSIgc3R5bGU9InN0cm9rZTojMTgxODE4O3N0cm9rZS13aWR0aDowLjU7IiB3aWR0aD0iMzI1IiB4PSI3IiB5PSI3Ii8+PGVsbGlwc2UgY3g9IjE0Ny4yNSIgY3k9IjIzIiBmaWxsPSIjQUREMUIyIiByeD0iMTEiIHJ5PSIxMSIgc3R5bGU9InN0cm9rZTojMTgxODE4O3N0cm9rZS13aWR0aDoxLjA7Ii8+PHBhdGggZD0iTTE0NC44NzUsMjcuMjUgTDE0NC44NzUsMjkgTDE0OS44MTI1LDI5IEwxNDkuODEyNSwyNy4yNSBMMTQ0Ljg3NSwyNy4yNSBaIE0xNDUuNTYyNSwyNy45Mzc1IFExNDUuNTYyNSwyNy45Mzc1IDE0NS41NjI1LDE4Ljc1IEwxNDMuODEyNSwxOC43NSBRMTQzLjgxMjUsMTguNzUgMTQzLjgxMjUsMjcuOTM3NSBMMTQ1LjU2MjUsMjcuOTM3NSBaIE0xNDkuMTI1LDI3LjkzNzUgTDE1MC44NzUsMjcuOTM3NSBRMTUwLjg3NSwyNy45Mzc1IDE1MC44NzUsMjUuMTI1IEwxNDkuMTI1LDI1LjEyNSBRMTQ5LjEyNSwyNS4xMjUgMTQ5LjEyNSwyNy45Mzc1IFogTTE0OS4xMjUsMTguNzUgUTE0OS4xMjUsMTguNzUgMTQ5LjEyNSwyMS41NjI1IEwxNTAuODc1LDIxLjU2MjUgUTE1MC44NzUsMjEuNTYyNSAxNTAuODc1LDE4Ljc1IEwxNDkuMTI1LDE4Ljc1IFogTTE0NC44NzUsMTkuNDM3NSBMMTQ5LjgxMjUsMTkuNDM3NSBMMTQ5LjgxMjUsMTcuNjg3NSBMMTQ0Ljg3NSwxNy42ODc1IEwxNDQuODc1LDE5LjQzNzUgWiAiIGZpbGw9IiMwMDAwMDAiLz48dGV4dCBmaWxsPSIjMDAwMDAwIiBmb250LWZhbWlseT0ic2Fucy1zZXJpZiIgZm9udC1zaXplPSIxNCIgbGVuZ3RoQWRqdXN0PSJzcGFjaW5nIiB0ZXh0TGVuZ3RoPSIzNiIgeD0iMTY3Ljc1IiB5PSIyOC43NDIyIj5UaW1lcjwvdGV4dD48bGluZSBzdHlsZT0ic3Ryb2tlOiMxODE4MTg7c3Ryb2tlLXdpZHRoOjAuNTsiIHgxPSI4IiB4Mj0iMzMxIiB5MT0iMzkiIHkyPSIzOSIvPjx0ZXh0IGZpbGw9IiMwMDAwMDAiIGZvbnQtZmFtaWx5PSJzYW5zLXNlcmlmIiBmb250LXNpemU9IjE0IiBsZW5ndGhBZGp1c3Q9InNwYWNpbmciIHRleHRMZW5ndGg9IjE4NCIgeD0iMTMiIHk9IjU2LjIzNDQiPmZyaWVuZCBjbGFzcyBUaW1lck1hbmFnZXI7PC90ZXh0Pjx0ZXh0IGZpbGw9IiMwMDAwMDAiIGZvbnQtZmFtaWx5PSJzYW5zLXNlcmlmIiBmb250LXNpemU9IjE0IiBsZW5ndGhBZGp1c3Q9InNwYWNpbmciIHRleHRMZW5ndGg9IjI0NyIgeD0iMTMiIHk9IjcxLjIxODgiPnR5cGVkZWYgc3RkOjpzaGFyZWRfcHRyJmx0O1RpbWVyJmd0OyBwdHI7PC90ZXh0Pjx0ZXh0IGZpbGw9IiMwMDAwMDAiIGZvbnQtZmFtaWx5PSJzYW5zLXNlcmlmIiBmb250LXNpemU9IjE0IiBsZW5ndGhBZGp1c3Q9InNwYWNpbmciIHRleHRMZW5ndGg9IjE3NyIgeD0iMTMiIHk9Ijg2LjIwMzEiPmJvb2wgbV9yZWN1cnJpbmcgPSBmYWxzZTs8L3RleHQ+PHRleHQgZmlsbD0iIzAwMDAwMCIgZm9udC1mYW1pbHk9InNhbnMtc2VyaWYiIGZvbnQtc2l6ZT0iMTQiIGxlbmd0aEFkanVzdD0ic3BhY2luZyIgdGV4dExlbmd0aD0iMTI5IiB4PSIxMyIgeT0iMTAxLjE4NzUiPnVpbnQ2NF90IG1fbXMgPSAwOzwvdGV4dD48dGV4dCBmaWxsPSIjMDAwMDAwIiBmb250LWZhbWlseT0ic2Fucy1zZXJpZiIgZm9udC1zaXplPSIxNCIgbGVuZ3RoQWRqdXN0PSJzcGFjaW5nIiB0ZXh0TGVuZ3RoPSIxNDIiIHg9IjEzIiB5PSIxMTYuMTcxOSI+dWludDY0X3QgbV9uZXh0ID0gMDs8L3RleHQ+PHRleHQgZmlsbD0iIzAwMDAwMCIgZm9udC1mYW1pbHk9InNhbnMtc2VyaWYiIGZvbnQtc2l6ZT0iMTQiIGxlbmd0aEFkanVzdD0ic3BhY2luZyIgdGV4dExlbmd0aD0iMjQyIiB4PSIxMyIgeT0iMTMxLjE1NjMiPlRpbWVyTWFuYWdlciogbV9tYW5hZ2VyID0gbnVsbHB0cjs8L3RleHQ+PHRleHQgZmlsbD0iIzAwMDAwMCIgZm9udC1mYW1pbHk9InNhbnMtc2VyaWYiIGZvbnQtc2l6ZT0iMTQiIGxlbmd0aEFkanVzdD0ic3BhY2luZyIgdGV4dExlbmd0aD0iMTI4IiB4PSIxMyIgeT0iMTQ2LjE0MDYiPnN0cnVjdCBDb21wYXJhdG9yOzwvdGV4dD48bGluZSBzdHlsZT0ic3Ryb2tlOiMxODE4MTg7c3Ryb2tlLXdpZHRoOjAuNTsiIHgxPSI4IiB4Mj0iMzMxIiB5MT0iMTUxLjg5MDYiIHkyPSIxNTEuODkwNiIvPjx0ZXh0IGZpbGw9IiMwMDAwMDAiIGZvbnQtZmFtaWx5PSJzYW5zLXNlcmlmIiBmb250LXNpemU9IjE0IiBsZW5ndGhBZGp1c3Q9InNwYWNpbmciIHRleHRMZW5ndGg9IjEwMSIgeD0iMTMiIHk9IjE2OS4xMjUiPmJvb2wgY2FuY2VsKCk7PC90ZXh0Pjx0ZXh0IGZpbGw9IiMwMDAwMDAiIGZvbnQtZmFtaWx5PSJzYW5zLXNlcmlmIiBmb250LXNpemU9IjE0IiBsZW5ndGhBZGp1c3Q9InNwYWNpbmciIHRleHRMZW5ndGg9IjEwOCIgeD0iMTMiIHk9IjE4NC4xMDk0Ij5ib29sIHJlZnJlc2goKTs8L3RleHQ+PHRleHQgZmlsbD0iIzAwMDAwMCIgZm9udC1mYW1pbHk9InNhbnMtc2VyaWYiIGZvbnQtc2l6ZT0iMTQiIGxlbmd0aEFkanVzdD0ic3BhY2luZyIgdGV4dExlbmd0aD0iMjc5IiB4PSIxMyIgeT0iMTk5LjA5MzgiPmJvb2wgcmVzZXQodWludDY0X3QgbXMsIGJvb2wgZnJvbV9ub3cpOzwvdGV4dD48dGV4dCBmaWxsPSIjMDAwMDAwIiBmb250LWZhbWlseT0ic2Fucy1zZXJpZiIgZm9udC1zaXplPSIxNCIgbGVuZ3RoQWRqdXN0PSJzcGFjaW5nIiB0ZXh0TGVuZ3RoPSIzMTMiIHg9IjEzIiB5PSIyMTQuMDc4MSI+VGltZXIodWludDY0X3QgbXMsIHN0ZDo6ZnVuY3Rpb24mbHQ7dm9pZCgpJmd0OyBjYiw8L3RleHQ+PHRleHQgZmlsbD0iIzAwMDAwMCIgZm9udC1mYW1pbHk9InNhbnMtc2VyaWYiIGZvbnQtc2l6ZT0iMTQiIGxlbmd0aEFkanVzdD0ic3BhY2luZyIgdGV4dExlbmd0aD0iMjc3IiB4PSIxMyIgeT0iMjI5LjA2MjUiPmJvb2wgcmVjdXJyaW5nLCBUaW1lck1hbmFnZXIqIG1hbmFnZXIpOzwvdGV4dD48dGV4dCBmaWxsPSIjMDAwMDAwIiBmb250LWZhbWlseT0ic2Fucy1zZXJpZiIgZm9udC1zaXplPSIxNCIgbGVuZ3RoQWRqdXN0PSJzcGFjaW5nIiB0ZXh0TGVuZ3RoPSIxNTEiIHg9IjEzIiB5PSIyNDQuMDQ2OSI+VGltZXIodWludDY0X3QgbmV4dCk7PC90ZXh0Pjx0ZXh0IGZpbGw9IiMwMDAwMDAiIGZvbnQtZmFtaWx5PSJzYW5zLXNlcmlmIiBmb250LXNpemU9IjE0IiBsZW5ndGhBZGp1c3Q9InNwYWNpbmciIHRleHRMZW5ndGg9IjE5MyIgeD0iMTMiIHk9IjI1OS4wMzEzIj5zdGQ6OmZ1bmN0aW9uJmx0O3ZvaWQoKSZndDsgbV9jYjs8L3RleHQ+PC9nPjxnIGlkPSJlbGVtX0dNTjMiPjxwYXRoIGQ9Ik0zNjcsMTE3IEwzNjcsMTMyIEwzMzIuMjYsMTM2IEwzNjcsMTQwIEwzNjcsMTU0LjgyODEgQTAsMCAwIDAgMCAzNjcsMTU0LjgyODEgTDQ3NCwxNTQuODI4MSBBMCwwIDAgMCAwIDQ3NCwxNTQuODI4MSBMNDc0LDEyNyBMNDY0LDExNyBMMzY3LDExNyBBMCwwIDAgMCAwIDM2NywxMTcgIiBmaWxsPSIjRkVGRkREIiBzdHlsZT0ic3Ryb2tlOiMxODE4MTg7c3Ryb2tlLXdpZHRoOjAuNTsiLz48cGF0aCBkPSJNNDY0LDExNyBMNDY0LDEyNyBMNDc0LDEyNyBMNDY0LDExNyAiIGZpbGw9IiNGRUZGREQiIHN0eWxlPSJzdHJva2U6IzE4MTgxODtzdHJva2Utd2lkdGg6MC41OyIvPjx0ZXh0IGZpbGw9IiMwMDAwMDAiIGZvbnQtZmFtaWx5PSJzYW5zLXNlcmlmIiBmb250LXNpemU9IjEzIiBsZW5ndGhBZGp1c3Q9InNwYWNpbmciIHRleHRMZW5ndGg9IjQ2IiB4PSIzNzMiIHk9IjEzNC4yODkxIj4mIzE3MTtUaW1lciYjMTg3OzwvdGV4dD48dGV4dCBmaWxsPSIjMDAwMDAwIiBmb250LWZhbWlseT0ic2Fucy1zZXJpZiIgZm9udC1zaXplPSIxMyIgbGVuZ3RoQWRqdXN0PSJzcGFjaW5nIiB0ZXh0TGVuZ3RoPSI4NiIgeD0iMzczIiB5PSIxNDguMjAzMSI+QGJyaWVmICYjMjM0NTA7JiMyNjEwMjsmIzIyMTIwOzwvdGV4dD48L2c+PCEtLVNSQz1bUlA2ekppR20zQ1Z0RjhON0V6STEwSjRTZks5WVBjRUZxakhmOHBMOXZSWHkyRjRTMjl3MFlQNHRFZnczejRGTjdmbWR3LSAtX3hMell0UWVPdVR1dzlGNFlYMzFhcUxVVzVfYkVVTEtaTkdiOG1TeVRMY1dXU2hOUm5LT0hMaDlab2FUZDBJY1RWNks4Qk1aYkRSUVJ4S2VZRDhJbi1RRDV2NHJsRkx6VUkwT05pcWF0NTlwcXVON3NaWWtFUklFNXdScmM2dHAtNDZvcnNIUVdvc25pYzY5VWVOaVl3LWxpdzRyZHVBUmF6MGdGSnhtNlRWOG0xd3gxZzNSWUw1c1dmOGtmVEZ2RjdhT2pYVEZTSmtmb25SNG1vZmFvM1YxenNudS1FSkJyY2s0c2s0d0h1ZjNhTG81eU8wSW9UU0NHcDdwUEY5eUlBMGZuS3dPSjZ6WF9WVm95VlVfVkZ5TG14dzdmNW0wMF0tLT48L2c+PC9zdmc+;" vertex="1" parent="WIyWlLk6GJQsqaUBKTNV-1">
            <mxGeometry x="131.5" y="1340" width="481" height="271" as="geometry" />
          </mxCell>
        </UserObject>
        <UserObject label="" plantUmlData="{&quot;data&quot;:&quot;@startuml\n\nclass TimerManager {\n    typedef RWMutex RWMutexType;\n    TimerManager();\n    virtual ~TimerManager();\n    Timer::ptr addTimer(uint64_t ms, std::function&lt;void()&gt; cb,bool recurring);\n    Timer::ptr addConditionTimer(uint64_t ms, std::function&lt;void()&gt; cb\n                        ,std::weak_ptr&lt;void&gt; weak_cond\n                        ,bool recurring = false);\n\n    uint64_t getNextTimer();\n    void listExpiredCb(std::vector&lt;std::function&lt;void()&gt; &gt;&amp; cbs);\n    bool hasTimer();\n    virtual void onTimerInsertedAtFront() = 0;\n    void addTimer(Timer::ptr val, RWMutexType::WriteLock&amp; lock);\n    bool detectClockRollover(uint64_t now_ms);\n    RWMutexType m_mutex;\n\n    std::set&lt;Timer::ptr, Timer::Comparator&gt; m_timers;\n    bool m_tickled = false;\n    uint64_t m_previouseTime = 0;\n}\n\nnote right of TimerManager\n&lt;&lt; TimerManager &gt;&gt;\n@brief 定时器管理器\nend note\n\n@enduml&quot;,&quot;format&quot;:&quot;svg&quot;}" id="EvpxWQEOAeNcwRCwze3R-10">
          <mxCell style="shape=image;noLabel=1;verticalAlign=top;aspect=fixed;imageAspect=0;image=data:image/svg+xml,PD94bWwgdmVyc2lvbj0iMS4wIiBlbmNvZGluZz0idXMtYXNjaWkiIHN0YW5kYWxvbmU9Im5vIj8+PHN2ZyB4bWxucz0iaHR0cDovL3d3dy53My5vcmcvMjAwMC9zdmciIHhtbG5zOnhsaW5rPSJodHRwOi8vd3d3LnczLm9yZy8xOTk5L3hsaW5rIiBjb250ZW50U3R5bGVUeXBlPSJ0ZXh0L2NzcyIgaGVpZ2h0PSIzNjFweCIgcHJlc2VydmVBc3BlY3RSYXRpbz0ibm9uZSIgc3R5bGU9IndpZHRoOjczM3B4O2hlaWdodDozNjFweDtiYWNrZ3JvdW5kOiNGRkZGRkY7IiB2ZXJzaW9uPSIxLjEiIHZpZXdCb3g9IjAgMCA3MzMgMzYxIiB3aWR0aD0iNzMzcHgiIHpvb21BbmRQYW49Im1hZ25pZnkiPjxkZWZzLz48Zz48IS0tY2xhc3MgVGltZXJNYW5hZ2VyLS0+PGcgaWQ9ImVsZW1fVGltZXJNYW5hZ2VyIj48cmVjdCBjb2RlTGluZT0iMSIgZmlsbD0iI0YxRjFGMSIgaGVpZ2h0PSIzNDcuNjg3NSIgaWQ9IlRpbWVyTWFuYWdlciIgcng9IjIuNSIgcnk9IjIuNSIgc3R5bGU9InN0cm9rZTojMTgxODE4O3N0cm9rZS13aWR0aDowLjU7IiB3aWR0aD0iNTM4IiB4PSI3IiB5PSI3Ii8+PGVsbGlwc2UgY3g9IjIyOS4yNSIgY3k9IjIzIiBmaWxsPSIjQUREMUIyIiByeD0iMTEiIHJ5PSIxMSIgc3R5bGU9InN0cm9rZTojMTgxODE4O3N0cm9rZS13aWR0aDoxLjA7Ii8+PHBhdGggZD0iTTIyNi44NzUsMjcuMjUgTDIyNi44NzUsMjkgTDIzMS44MTI1LDI5IEwyMzEuODEyNSwyNy4yNSBMMjI2Ljg3NSwyNy4yNSBaIE0yMjcuNTYyNSwyNy45Mzc1IFEyMjcuNTYyNSwyNy45Mzc1IDIyNy41NjI1LDE4Ljc1IEwyMjUuODEyNSwxOC43NSBRMjI1LjgxMjUsMTguNzUgMjI1LjgxMjUsMjcuOTM3NSBMMjI3LjU2MjUsMjcuOTM3NSBaIE0yMzEuMTI1LDI3LjkzNzUgTDIzMi44NzUsMjcuOTM3NSBRMjMyLjg3NSwyNy45Mzc1IDIzMi44NzUsMjUuMTI1IEwyMzEuMTI1LDI1LjEyNSBRMjMxLjEyNSwyNS4xMjUgMjMxLjEyNSwyNy45Mzc1IFogTTIzMS4xMjUsMTguNzUgUTIzMS4xMjUsMTguNzUgMjMxLjEyNSwyMS41NjI1IEwyMzIuODc1LDIxLjU2MjUgUTIzMi44NzUsMjEuNTYyNSAyMzIuODc1LDE4Ljc1IEwyMzEuMTI1LDE4Ljc1IFogTTIyNi44NzUsMTkuNDM3NSBMMjMxLjgxMjUsMTkuNDM3NSBMMjMxLjgxMjUsMTcuNjg3NSBMMjI2Ljg3NSwxNy42ODc1IEwyMjYuODc1LDE5LjQzNzUgWiAiIGZpbGw9IiMwMDAwMDAiLz48dGV4dCBmaWxsPSIjMDAwMDAwIiBmb250LWZhbWlseT0ic2Fucy1zZXJpZiIgZm9udC1zaXplPSIxNCIgbGVuZ3RoQWRqdXN0PSJzcGFjaW5nIiB0ZXh0TGVuZ3RoPSI4NSIgeD0iMjQ5Ljc1IiB5PSIyOC43NDIyIj5UaW1lck1hbmFnZXI8L3RleHQ+PGxpbmUgc3R5bGU9InN0cm9rZTojMTgxODE4O3N0cm9rZS13aWR0aDowLjU7IiB4MT0iOCIgeDI9IjU0NCIgeTE9IjM5IiB5Mj0iMzkiLz48dGV4dCBmaWxsPSIjMDAwMDAwIiBmb250LWZhbWlseT0ic2Fucy1zZXJpZiIgZm9udC1zaXplPSIxNCIgbGVuZ3RoQWRqdXN0PSJzcGFjaW5nIiB0ZXh0TGVuZ3RoPSIxOTciIHg9IjEzIiB5PSI1Ni4yMzQ0Ij50eXBlZGVmIFJXTXV0ZXggUldNdXRleFR5cGU7PC90ZXh0Pjx0ZXh0IGZpbGw9IiMwMDAwMDAiIGZvbnQtZmFtaWx5PSJzYW5zLXNlcmlmIiBmb250LXNpemU9IjE0IiBsZW5ndGhBZGp1c3Q9InNwYWNpbmciIHRleHRMZW5ndGg9IjIxMiIgeD0iMTMiIHk9IjcxLjIxODgiPixzdGQ6OndlYWtfcHRyJmx0O3ZvaWQmZ3Q7IHdlYWtfY29uZDwvdGV4dD48dGV4dCBmaWxsPSIjMDAwMDAwIiBmb250LWZhbWlseT0ic2Fucy1zZXJpZiIgZm9udC1zaXplPSIxNCIgbGVuZ3RoQWRqdXN0PSJzcGFjaW5nIiB0ZXh0TGVuZ3RoPSI3IiB4PSIxMyIgeT0iODYuMjAzMSI+JiMxNjA7PC90ZXh0Pjx0ZXh0IGZpbGw9IiMwMDAwMDAiIGZvbnQtZmFtaWx5PSJzYW5zLXNlcmlmIiBmb250LXNpemU9IjE0IiBsZW5ndGhBZGp1c3Q9InNwYWNpbmciIHRleHRMZW5ndGg9IjE0MyIgeD0iMTMiIHk9IjEwMS4xODc1Ij5SV011dGV4VHlwZSBtX211dGV4OzwvdGV4dD48dGV4dCBmaWxsPSIjMDAwMDAwIiBmb250LWZhbWlseT0ic2Fucy1zZXJpZiIgZm9udC1zaXplPSIxNCIgbGVuZ3RoQWRqdXN0PSJzcGFjaW5nIiB0ZXh0TGVuZ3RoPSI3IiB4PSIxMyIgeT0iMTE2LjE3MTkiPiYjMTYwOzwvdGV4dD48dGV4dCBmaWxsPSIjMDAwMDAwIiBmb250LWZhbWlseT0ic2Fucy1zZXJpZiIgZm9udC1zaXplPSIxNCIgbGVuZ3RoQWRqdXN0PSJzcGFjaW5nIiB0ZXh0TGVuZ3RoPSIzNDkiIHg9IjEzIiB5PSIxMzEuMTU2MyI+c3RkOjpzZXQmbHQ7VGltZXI6OnB0ciwgVGltZXI6OkNvbXBhcmF0b3ImZ3Q7IG1fdGltZXJzOzwvdGV4dD48dGV4dCBmaWxsPSIjMDAwMDAwIiBmb250LWZhbWlseT0ic2Fucy1zZXJpZiIgZm9udC1zaXplPSIxNCIgbGVuZ3RoQWRqdXN0PSJzcGFjaW5nIiB0ZXh0TGVuZ3RoPSIxNjMiIHg9IjEzIiB5PSIxNDYuMTQwNiI+Ym9vbCBtX3RpY2tsZWQgPSBmYWxzZTs8L3RleHQ+PHRleHQgZmlsbD0iIzAwMDAwMCIgZm9udC1mYW1pbHk9InNhbnMtc2VyaWYiIGZvbnQtc2l6ZT0iMTQiIGxlbmd0aEFkanVzdD0ic3BhY2luZyIgdGV4dExlbmd0aD0iMjA2IiB4PSIxMyIgeT0iMTYxLjEyNSI+dWludDY0X3QgbV9wcmV2aW91c2VUaW1lID0gMDs8L3RleHQ+PGxpbmUgc3R5bGU9InN0cm9rZTojMTgxODE4O3N0cm9rZS13aWR0aDowLjU7IiB4MT0iOCIgeDI9IjU0NCIgeTE9IjE2Ni44NzUiIHkyPSIxNjYuODc1Ii8+PHRleHQgZmlsbD0iIzAwMDAwMCIgZm9udC1mYW1pbHk9InNhbnMtc2VyaWYiIGZvbnQtc2l6ZT0iMTQiIGxlbmd0aEFkanVzdD0ic3BhY2luZyIgdGV4dExlbmd0aD0iMTA5IiB4PSIxMyIgeT0iMTg0LjEwOTQiPlRpbWVyTWFuYWdlcigpOzwvdGV4dD48dGV4dCBmaWxsPSIjMDAwMDAwIiBmb250LWZhbWlseT0ic2Fucy1zZXJpZiIgZm9udC1zaXplPSIxNCIgbGVuZ3RoQWRqdXN0PSJzcGFjaW5nIiB0ZXh0TGVuZ3RoPSIxNzIiIHg9IjEzIiB5PSIxOTkuMDkzOCI+dmlydHVhbCB+VGltZXJNYW5hZ2VyKCk7PC90ZXh0Pjx0ZXh0IGZpbGw9IiMwMDAwMDAiIGZvbnQtZmFtaWx5PSJzYW5zLXNlcmlmIiBmb250LXNpemU9IjE0IiBsZW5ndGhBZGp1c3Q9InNwYWNpbmciIHRleHRMZW5ndGg9IjUyNiIgeD0iMTMiIHk9IjIxNC4wNzgxIj5UaW1lcjo6cHRyIGFkZFRpbWVyKHVpbnQ2NF90IG1zLCBzdGQ6OmZ1bmN0aW9uJmx0O3ZvaWQoKSZndDsgY2IsYm9vbCByZWN1cnJpbmcpOzwvdGV4dD48dGV4dCBmaWxsPSIjMDAwMDAwIiBmb250LWZhbWlseT0ic2Fucy1zZXJpZiIgZm9udC1zaXplPSIxNCIgbGVuZ3RoQWRqdXN0PSJzcGFjaW5nIiB0ZXh0TGVuZ3RoPSI0NjgiIHg9IjEzIiB5PSIyMjkuMDYyNSI+VGltZXI6OnB0ciBhZGRDb25kaXRpb25UaW1lcih1aW50NjRfdCBtcywgc3RkOjpmdW5jdGlvbiZsdDt2b2lkKCkmZ3Q7IGNiPC90ZXh0Pjx0ZXh0IGZpbGw9IiMwMDAwMDAiIGZvbnQtZmFtaWx5PSJzYW5zLXNlcmlmIiBmb250LXNpemU9IjE0IiBsZW5ndGhBZGp1c3Q9InNwYWNpbmciIHRleHRMZW5ndGg9IjE3NyIgeD0iMTMiIHk9IjI0NC4wNDY5Ij4sYm9vbCByZWN1cnJpbmcgPSBmYWxzZSk7PC90ZXh0Pjx0ZXh0IGZpbGw9IiMwMDAwMDAiIGZvbnQtZmFtaWx5PSJzYW5zLXNlcmlmIiBmb250LXNpemU9IjE0IiBsZW5ndGhBZGp1c3Q9InNwYWNpbmciIHRleHRMZW5ndGg9IjciIHg9IjEzIiB5PSIyNTkuMDMxMyI+JiMxNjA7PC90ZXh0Pjx0ZXh0IGZpbGw9IiMwMDAwMDAiIGZvbnQtZmFtaWx5PSJzYW5zLXNlcmlmIiBmb250LXNpemU9IjE0IiBsZW5ndGhBZGp1c3Q9InNwYWNpbmciIHRleHRMZW5ndGg9IjE3MiIgeD0iMTMiIHk9IjI3NC4wMTU2Ij51aW50NjRfdCBnZXROZXh0VGltZXIoKTs8L3RleHQ+PHRleHQgZmlsbD0iIzAwMDAwMCIgZm9udC1mYW1pbHk9InNhbnMtc2VyaWYiIGZvbnQtc2l6ZT0iMTQiIGxlbmd0aEFkanVzdD0ic3BhY2luZyIgdGV4dExlbmd0aD0iNDMyIiB4PSIxMyIgeT0iMjg5Ij52b2lkIGxpc3RFeHBpcmVkQ2Ioc3RkOjp2ZWN0b3ImbHQ7c3RkOjpmdW5jdGlvbiZsdDt2b2lkKCkmZ3Q7ICZndDsmYW1wOyBjYnMpOzwvdGV4dD48dGV4dCBmaWxsPSIjMDAwMDAwIiBmb250LWZhbWlseT0ic2Fucy1zZXJpZiIgZm9udC1zaXplPSIxNCIgbGVuZ3RoQWRqdXN0PSJzcGFjaW5nIiB0ZXh0TGVuZ3RoPSIxMTYiIHg9IjEzIiB5PSIzMDMuOTg0NCI+Ym9vbCBoYXNUaW1lcigpOzwvdGV4dD48dGV4dCBmaWxsPSIjMDAwMDAwIiBmb250LWZhbWlseT0ic2Fucy1zZXJpZiIgZm9udC1zaXplPSIxNCIgbGVuZ3RoQWRqdXN0PSJzcGFjaW5nIiB0ZXh0TGVuZ3RoPSIyOTgiIHg9IjEzIiB5PSIzMTguOTY4OCI+dmlydHVhbCB2b2lkIG9uVGltZXJJbnNlcnRlZEF0RnJvbnQoKSA9IDA7PC90ZXh0Pjx0ZXh0IGZpbGw9IiMwMDAwMDAiIGZvbnQtZmFtaWx5PSJzYW5zLXNlcmlmIiBmb250LXNpemU9IjE0IiBsZW5ndGhBZGp1c3Q9InNwYWNpbmciIHRleHRMZW5ndGg9IjQyNSIgeD0iMTMiIHk9IjMzMy45NTMxIj52b2lkIGFkZFRpbWVyKFRpbWVyOjpwdHIgdmFsLCBSV011dGV4VHlwZTo6V3JpdGVMb2NrJmFtcDsgbG9jayk7PC90ZXh0Pjx0ZXh0IGZpbGw9IiMwMDAwMDAiIGZvbnQtZmFtaWx5PSJzYW5zLXNlcmlmIiBmb250LXNpemU9IjE0IiBsZW5ndGhBZGp1c3Q9InNwYWNpbmciIHRleHRMZW5ndGg9IjI5OSIgeD0iMTMiIHk9IjM0OC45Mzc1Ij5ib29sIGRldGVjdENsb2NrUm9sbG92ZXIodWludDY0X3Qgbm93X21zKTs8L3RleHQ+PC9nPjxnIGlkPSJlbGVtX0dNTjMiPjxwYXRoIGQ9Ik01ODAsMTYyIEw1ODAsMTc3IEw1NDUuMTMsMTgxIEw1ODAsMTg1IEw1ODAsMTk5LjgyODEgQTAsMCAwIDAgMCA1ODAsMTk5LjgyODEgTDcyNiwxOTkuODI4MSBBMCwwIDAgMCAwIDcyNiwxOTkuODI4MSBMNzI2LDE3MiBMNzE2LDE2MiBMNTgwLDE2MiBBMCwwIDAgMCAwIDU4MCwxNjIgIiBmaWxsPSIjRkVGRkREIiBzdHlsZT0ic3Ryb2tlOiMxODE4MTg7c3Ryb2tlLXdpZHRoOjAuNTsiLz48cGF0aCBkPSJNNzE2LDE2MiBMNzE2LDE3MiBMNzI2LDE3MiBMNzE2LDE2MiAiIGZpbGw9IiNGRUZGREQiIHN0eWxlPSJzdHJva2U6IzE4MTgxODtzdHJva2Utd2lkdGg6MC41OyIvPjx0ZXh0IGZpbGw9IiMwMDAwMDAiIGZvbnQtZmFtaWx5PSJzYW5zLXNlcmlmIiBmb250LXNpemU9IjEzIiBsZW5ndGhBZGp1c3Q9InNwYWNpbmciIHRleHRMZW5ndGg9Ijk1IiB4PSI1ODYiIHk9IjE3OS4yODkxIj4mIzE3MTtUaW1lck1hbmFnZXImIzE4Nzs8L3RleHQ+PHRleHQgZmlsbD0iIzAwMDAwMCIgZm9udC1mYW1pbHk9InNhbnMtc2VyaWYiIGZvbnQtc2l6ZT0iMTMiIGxlbmd0aEFkanVzdD0ic3BhY2luZyIgdGV4dExlbmd0aD0iMTI1IiB4PSI1ODYiIHk9IjE5My4yMDMxIj5AYnJpZWYgJiMyMzQ1MDsmIzI2MTAyOyYjMjIxMjA7JiMzMTY0OTsmIzI5NzAyOyYjMjIxMjA7PC90ZXh0PjwvZz48IS0tU1JDPVtiTEVuSmlDbTREdHA1SlRMZ1BJMTBKNjQ0ODRnYTkyMDBJNXJaRHB1TWdtd1RjSFZHWDYyYVBhRG1TUjZyOTRfQWxtNlpqajA4ZksxM3g1enBkbHR4ZnNUSXNPak44YTJwSmJKUjhPNnhXOW1Xc3ZCdjNZNW9fNXZIUlhldm9pTnRsU19UMzdYUzFzaFhRNkFJTlpPVGtYWlNMb0kwU1F2dHVNTEtCSXRjbjRLRFc5QkY4d2RiU2Y5UTlOS01sMW1jNDgtWUlQUUlwMk9MeU84RFRqQUR6QUFZbVJ0M3J2RmlzcjQ3ZDYzUjl1dlVlejhtTXpwYi1QbE01eWQ3QzJLSU9qRWh1VnlROWVYTlUyMnJhZlJ2cm1FYUNCSXlROEsxbGJlNGRlSERVUWFKUkF6WDdKV2doMFIxZl95Y2phLXhRT1hkZHZacGdjb1EwWnY0UHFPaElXU0VnNHg3SEtfcFVhdU4zQ1BUUXowNzgtRDgzcEotTm0wcWRzeDhaWUlLcHJnbWZUUUlicnQ2d0JxSkxRcWNaa0NLNkg1aXp3T3ZHa3NJQ2NsWUFYai1LV045SkZDLVA4dzUzTDFzcWRWWEZBdkhEdXNPQnpsVnY2TDFja1hBdWlEdVJody1vMUdjWDJDYzVxSnc2ZGxVV1Q5cWR5WVFIZVNKZW5tcHNFclZGcnlfYll6bDd5anR4d1U3anFZR0NNWHVWZTZdLS0+PC9nPjwvc3ZnPg==;" vertex="1" parent="WIyWlLk6GJQsqaUBKTNV-1">
            <mxGeometry x="90" y="970" width="733" height="361" as="geometry" />
          </mxCell>
        </UserObject>
        <UserObject label="" plantUmlData="{&quot;data&quot;:&quot;@startuml\n\nclass Fiber {\n    typedef std::shared_ptr&lt;Fiber&gt; ptr;\n    Fiber();\n    Fiber(std::function&lt;void()&gt; cb, size_t stacksize = 0, bool run_in_scheduler = true);\n    ~Fiber();\n    void reset(std::function&lt;void()&gt; cb);\n    void resume();\n    void yield();\n    uint64_t getId() const { return m_id; }\n    State getState() const { return m_state; }\n    static void SetThis(Fiber *f);\n    static Fiber::ptr GetThis();\n    static uint64_t TotalFibers();\n    static void MainFunc();\n    static uint64_t GetFiberId();\n    uint64_t m_id        = 0;\n    uint32_t m_stacksize = 0;\n    State m_state        = READY;\n    ucontext_t m_ctx;\n    void *m_stack = nullptr;\n    std::function&lt;void()&gt; m_cb;\n    bool m_runInScheduler;\n}\n\nnote right of Fiber\n&lt;&lt; Fiber &gt;&gt;\n@brief 协程类\nend note\n\n@enduml&quot;,&quot;format&quot;:&quot;svg&quot;}" id="EvpxWQEOAeNcwRCwze3R-11">
          <mxCell style="shape=image;noLabel=1;verticalAlign=top;aspect=fixed;imageAspect=0;image=data:image/svg+xml,PD94bWwgdmVyc2lvbj0iMS4wIiBlbmNvZGluZz0idXMtYXNjaWkiIHN0YW5kYWxvbmU9Im5vIj8+PHN2ZyB4bWxucz0iaHR0cDovL3d3dy53My5vcmcvMjAwMC9zdmciIHhtbG5zOnhsaW5rPSJodHRwOi8vd3d3LnczLm9yZy8xOTk5L3hsaW5rIiBjb250ZW50U3R5bGVUeXBlPSJ0ZXh0L2NzcyIgaGVpZ2h0PSIzNzZweCIgcHJlc2VydmVBc3BlY3RSYXRpbz0ibm9uZSIgc3R5bGU9IndpZHRoOjc3N3B4O2hlaWdodDozNzZweDtiYWNrZ3JvdW5kOiNGRkZGRkY7IiB2ZXJzaW9uPSIxLjEiIHZpZXdCb3g9IjAgMCA3NzcgMzc2IiB3aWR0aD0iNzc3cHgiIHpvb21BbmRQYW49Im1hZ25pZnkiPjxkZWZzLz48Zz48IS0tY2xhc3MgRmliZXItLT48ZyBpZD0iZWxlbV9GaWJlciI+PHJlY3QgY29kZUxpbmU9IjEiIGZpbGw9IiNGMUYxRjEiIGhlaWdodD0iMzYyLjY3MTkiIGlkPSJGaWJlciIgcng9IjIuNSIgcnk9IjIuNSIgc3R5bGU9InN0cm9rZTojMTgxODE4O3N0cm9rZS13aWR0aDowLjU7IiB3aWR0aD0iNjE5IiB4PSI5IiB5PSI3Ii8+PGVsbGlwc2UgY3g9IjI5Ni43NSIgY3k9IjIzIiBmaWxsPSIjQUREMUIyIiByeD0iMTEiIHJ5PSIxMSIgc3R5bGU9InN0cm9rZTojMTgxODE4O3N0cm9rZS13aWR0aDoxLjA7Ii8+PHBhdGggZD0iTTI5NC4zNzUsMjcuMjUgTDI5NC4zNzUsMjkgTDI5OS4zMTI1LDI5IEwyOTkuMzEyNSwyNy4yNSBMMjk0LjM3NSwyNy4yNSBaIE0yOTUuMDYyNSwyNy45Mzc1IFEyOTUuMDYyNSwyNy45Mzc1IDI5NS4wNjI1LDE4Ljc1IEwyOTMuMzEyNSwxOC43NSBRMjkzLjMxMjUsMTguNzUgMjkzLjMxMjUsMjcuOTM3NSBMMjk1LjA2MjUsMjcuOTM3NSBaIE0yOTguNjI1LDI3LjkzNzUgTDMwMC4zNzUsMjcuOTM3NSBRMzAwLjM3NSwyNy45Mzc1IDMwMC4zNzUsMjUuMTI1IEwyOTguNjI1LDI1LjEyNSBRMjk4LjYyNSwyNS4xMjUgMjk4LjYyNSwyNy45Mzc1IFogTTI5OC42MjUsMTguNzUgUTI5OC42MjUsMTguNzUgMjk4LjYyNSwyMS41NjI1IEwzMDAuMzc1LDIxLjU2MjUgUTMwMC4zNzUsMjEuNTYyNSAzMDAuMzc1LDE4Ljc1IEwyOTguNjI1LDE4Ljc1IFogTTI5NC4zNzUsMTkuNDM3NSBMMjk5LjMxMjUsMTkuNDM3NSBMMjk5LjMxMjUsMTcuNjg3NSBMMjk0LjM3NSwxNy42ODc1IEwyOTQuMzc1LDE5LjQzNzUgWiAiIGZpbGw9IiMwMDAwMDAiLz48dGV4dCBmaWxsPSIjMDAwMDAwIiBmb250LWZhbWlseT0ic2Fucy1zZXJpZiIgZm9udC1zaXplPSIxNCIgbGVuZ3RoQWRqdXN0PSJzcGFjaW5nIiB0ZXh0TGVuZ3RoPSIzNSIgeD0iMzE3LjI1IiB5PSIyOC43NDIyIj5GaWJlcjwvdGV4dD48bGluZSBzdHlsZT0ic3Ryb2tlOiMxODE4MTg7c3Ryb2tlLXdpZHRoOjAuNTsiIHgxPSIxMCIgeDI9IjYyNyIgeTE9IjM5IiB5Mj0iMzkiLz48dGV4dCBmaWxsPSIjMDAwMDAwIiBmb250LWZhbWlseT0ic2Fucy1zZXJpZiIgZm9udC1zaXplPSIxNCIgbGVuZ3RoQWRqdXN0PSJzcGFjaW5nIiB0ZXh0TGVuZ3RoPSIyNDYiIHg9IjE1IiB5PSI1Ni4yMzQ0Ij50eXBlZGVmIHN0ZDo6c2hhcmVkX3B0ciZsdDtGaWJlciZndDsgcHRyOzwvdGV4dD48dGV4dCBmaWxsPSIjMDAwMDAwIiBmb250LWZhbWlseT0ic2Fucy1zZXJpZiIgZm9udC1zaXplPSIxNCIgbGVuZ3RoQWRqdXN0PSJzcGFjaW5nIiB0ZXh0TGVuZ3RoPSIxNzciIHg9IjE1IiB5PSI3MS4yMTg4Ij51aW50NjRfdCBtX2lkICAgICAgICA9IDA7PC90ZXh0Pjx0ZXh0IGZpbGw9IiMwMDAwMDAiIGZvbnQtZmFtaWx5PSJzYW5zLXNlcmlmIiBmb250LXNpemU9IjE0IiBsZW5ndGhBZGp1c3Q9InNwYWNpbmciIHRleHRMZW5ndGg9IjE3NyIgeD0iMTUiIHk9Ijg2LjIwMzEiPnVpbnQzMl90IG1fc3RhY2tzaXplID0gMDs8L3RleHQ+PHRleHQgZmlsbD0iIzAwMDAwMCIgZm9udC1mYW1pbHk9InNhbnMtc2VyaWYiIGZvbnQtc2l6ZT0iMTQiIGxlbmd0aEFkanVzdD0ic3BhY2luZyIgdGV4dExlbmd0aD0iMjA1IiB4PSIxNSIgeT0iMTAxLjE4NzUiPlN0YXRlIG1fc3RhdGUgICAgICAgID0gUkVBRFk7PC90ZXh0Pjx0ZXh0IGZpbGw9IiMwMDAwMDAiIGZvbnQtZmFtaWx5PSJzYW5zLXNlcmlmIiBmb250LXNpemU9IjE0IiBsZW5ndGhBZGp1c3Q9InNwYWNpbmciIHRleHRMZW5ndGg9IjEyMSIgeD0iMTUiIHk9IjExNi4xNzE5Ij51Y29udGV4dF90IG1fY3R4OzwvdGV4dD48dGV4dCBmaWxsPSIjMDAwMDAwIiBmb250LWZhbWlseT0ic2Fucy1zZXJpZiIgZm9udC1zaXplPSIxNCIgbGVuZ3RoQWRqdXN0PSJzcGFjaW5nIiB0ZXh0TGVuZ3RoPSIxNzAiIHg9IjE1IiB5PSIxMzEuMTU2MyI+dm9pZCAqbV9zdGFjayA9IG51bGxwdHI7PC90ZXh0Pjx0ZXh0IGZpbGw9IiMwMDAwMDAiIGZvbnQtZmFtaWx5PSJzYW5zLXNlcmlmIiBmb250LXNpemU9IjE0IiBsZW5ndGhBZGp1c3Q9InNwYWNpbmciIHRleHRMZW5ndGg9IjE1NiIgeD0iMTUiIHk9IjE0Ni4xNDA2Ij5ib29sIG1fcnVuSW5TY2hlZHVsZXI7PC90ZXh0PjxsaW5lIHN0eWxlPSJzdHJva2U6IzE4MTgxODtzdHJva2Utd2lkdGg6MC41OyIgeDE9IjEwIiB4Mj0iNjI3IiB5MT0iMTUxLjg5MDYiIHkyPSIxNTEuODkwNiIvPjx0ZXh0IGZpbGw9IiMwMDAwMDAiIGZvbnQtZmFtaWx5PSJzYW5zLXNlcmlmIiBmb250LXNpemU9IjE0IiBsZW5ndGhBZGp1c3Q9InNwYWNpbmciIHRleHRMZW5ndGg9IjU5IiB4PSIyOSIgeT0iMTY5LjEyNSI+RmliZXIoKTs8L3RleHQ+PHRleHQgZmlsbD0iIzAwMDAwMCIgZm9udC1mYW1pbHk9InNhbnMtc2VyaWYiIGZvbnQtc2l6ZT0iMTQiIGxlbmd0aEFkanVzdD0ic3BhY2luZyIgdGV4dExlbmd0aD0iNTkzIiB4PSIyOSIgeT0iMTg0LjEwOTQiPkZpYmVyKHN0ZDo6ZnVuY3Rpb24mbHQ7dm9pZCgpJmd0OyBjYiwgc2l6ZV90IHN0YWNrc2l6ZSA9IDAsIGJvb2wgcnVuX2luX3NjaGVkdWxlciA9IHRydWUpOzwvdGV4dD48cG9seWdvbiBmaWxsPSIjNDE3N0FGIiBwb2ludHM9IjIwLDE5MC44NTE2LDE2LDE5Ni44NTE2LDI0LDE5Ni44NTE2IiBzdHlsZT0ic3Ryb2tlOiMxOTYzQTA7c3Ryb2tlLXdpZHRoOjEuMDsiLz48dGV4dCBmaWxsPSIjMDAwMDAwIiBmb250LWZhbWlseT0ic2Fucy1zZXJpZiIgZm9udC1zaXplPSIxNCIgbGVuZ3RoQWRqdXN0PSJzcGFjaW5nIiB0ZXh0TGVuZ3RoPSI1OSIgeD0iMjkiIHk9IjE5OS4wOTM4Ij5GaWJlcigpOzwvdGV4dD48dGV4dCBmaWxsPSIjMDAwMDAwIiBmb250LWZhbWlseT0ic2Fucy1zZXJpZiIgZm9udC1zaXplPSIxNCIgbGVuZ3RoQWRqdXN0PSJzcGFjaW5nIiB0ZXh0TGVuZ3RoPSIyNjQiIHg9IjI5IiB5PSIyMTQuMDc4MSI+dm9pZCByZXNldChzdGQ6OmZ1bmN0aW9uJmx0O3ZvaWQoKSZndDsgY2IpOzwvdGV4dD48dGV4dCBmaWxsPSIjMDAwMDAwIiBmb250LWZhbWlseT0ic2Fucy1zZXJpZiIgZm9udC1zaXplPSIxNCIgbGVuZ3RoQWRqdXN0PSJzcGFjaW5nIiB0ZXh0TGVuZ3RoPSIxMDIiIHg9IjI5IiB5PSIyMjkuMDYyNSI+dm9pZCByZXN1bWUoKTs8L3RleHQ+PHRleHQgZmlsbD0iIzAwMDAwMCIgZm9udC1mYW1pbHk9InNhbnMtc2VyaWYiIGZvbnQtc2l6ZT0iMTQiIGxlbmd0aEFkanVzdD0ic3BhY2luZyIgdGV4dExlbmd0aD0iOTQiIHg9IjI5IiB5PSIyNDQuMDQ2OSI+dm9pZCB5aWVsZCgpOzwvdGV4dD48dGV4dCBmaWxsPSIjMDAwMDAwIiBmb250LWZhbWlseT0ic2Fucy1zZXJpZiIgZm9udC1zaXplPSIxNCIgbGVuZ3RoQWRqdXN0PSJzcGFjaW5nIiB0ZXh0TGVuZ3RoPSIyNzkiIHg9IjI5IiB5PSIyNTkuMDMxMyI+dWludDY0X3QgZ2V0SWQoKSBjb25zdCB7IHJldHVybiBtX2lkOyB9PC90ZXh0Pjx0ZXh0IGZpbGw9IiMwMDAwMDAiIGZvbnQtZmFtaWx5PSJzYW5zLXNlcmlmIiBmb250LXNpemU9IjE0IiBsZW5ndGhBZGp1c3Q9InNwYWNpbmciIHRleHRMZW5ndGg9IjMwMCIgeD0iMjkiIHk9IjI3NC4wMTU2Ij5TdGF0ZSBnZXRTdGF0ZSgpIGNvbnN0IHsgcmV0dXJuIG1fc3RhdGU7IH08L3RleHQ+PHRleHQgZmlsbD0iIzAwMDAwMCIgZm9udC1mYW1pbHk9InNhbnMtc2VyaWYiIGZvbnQtc2l6ZT0iMTQiIGxlbmd0aEFkanVzdD0ic3BhY2luZyIgdGV4dExlbmd0aD0iMjEzIiB4PSIyOSIgeT0iMjg5Ij5zdGF0aWMgdm9pZCBTZXRUaGlzKEZpYmVyICpmKTs8L3RleHQ+PHRleHQgZmlsbD0iIzAwMDAwMCIgZm9udC1mYW1pbHk9InNhbnMtc2VyaWYiIGZvbnQtc2l6ZT0iMTQiIGxlbmd0aEFkanVzdD0ic3BhY2luZyIgdGV4dExlbmd0aD0iMTk5IiB4PSIyOSIgeT0iMzAzLjk4NDQiPnN0YXRpYyBGaWJlcjo6cHRyIEdldFRoaXMoKTs8L3RleHQ+PHRleHQgZmlsbD0iIzAwMDAwMCIgZm9udC1mYW1pbHk9InNhbnMtc2VyaWYiIGZvbnQtc2l6ZT0iMTQiIGxlbmd0aEFkanVzdD0ic3BhY2luZyIgdGV4dExlbmd0aD0iMjEzIiB4PSIyOSIgeT0iMzE4Ljk2ODgiPnN0YXRpYyB1aW50NjRfdCBUb3RhbEZpYmVycygpOzwvdGV4dD48dGV4dCBmaWxsPSIjMDAwMDAwIiBmb250LWZhbWlseT0ic2Fucy1zZXJpZiIgZm9udC1zaXplPSIxNCIgbGVuZ3RoQWRqdXN0PSJzcGFjaW5nIiB0ZXh0TGVuZ3RoPSIxNjQiIHg9IjI5IiB5PSIzMzMuOTUzMSI+c3RhdGljIHZvaWQgTWFpbkZ1bmMoKTs8L3RleHQ+PHRleHQgZmlsbD0iIzAwMDAwMCIgZm9udC1mYW1pbHk9InNhbnMtc2VyaWYiIGZvbnQtc2l6ZT0iMTQiIGxlbmd0aEFkanVzdD0ic3BhY2luZyIgdGV4dExlbmd0aD0iMjA2IiB4PSIyOSIgeT0iMzQ4LjkzNzUiPnN0YXRpYyB1aW50NjRfdCBHZXRGaWJlcklkKCk7PC90ZXh0Pjx0ZXh0IGZpbGw9IiMwMDAwMDAiIGZvbnQtZmFtaWx5PSJzYW5zLXNlcmlmIiBmb250LXNpemU9IjE0IiBsZW5ndGhBZGp1c3Q9InNwYWNpbmciIHRleHRMZW5ndGg9IjE5MyIgeD0iMjkiIHk9IjM2My45MjE5Ij5zdGQ6OmZ1bmN0aW9uJmx0O3ZvaWQoKSZndDsgbV9jYjs8L3RleHQ+PC9nPjxnIGlkPSJlbGVtX0dNTjMiPjxwYXRoIGQ9Ik02NjMsMTY5LjUgTDY2MywxODQuNSBMNjI4LjI3LDE4OC41IEw2NjMsMTkyLjUgTDY2MywyMDcuMzI4MSBBMCwwIDAgMCAwIDY2MywyMDcuMzI4MSBMNzcwLDIwNy4zMjgxIEEwLDAgMCAwIDAgNzcwLDIwNy4zMjgxIEw3NzAsMTc5LjUgTDc2MCwxNjkuNSBMNjYzLDE2OS41IEEwLDAgMCAwIDAgNjYzLDE2OS41ICIgZmlsbD0iI0ZFRkZERCIgc3R5bGU9InN0cm9rZTojMTgxODE4O3N0cm9rZS13aWR0aDowLjU7Ii8+PHBhdGggZD0iTTc2MCwxNjkuNSBMNzYwLDE3OS41IEw3NzAsMTc5LjUgTDc2MCwxNjkuNSAiIGZpbGw9IiNGRUZGREQiIHN0eWxlPSJzdHJva2U6IzE4MTgxODtzdHJva2Utd2lkdGg6MC41OyIvPjx0ZXh0IGZpbGw9IiMwMDAwMDAiIGZvbnQtZmFtaWx5PSJzYW5zLXNlcmlmIiBmb250LXNpemU9IjEzIiBsZW5ndGhBZGp1c3Q9InNwYWNpbmciIHRleHRMZW5ndGg9IjQ4IiB4PSI2NjkiIHk9IjE4Ni43ODkxIj4mIzE3MTtGaWJlciYjMTg3OzwvdGV4dD48dGV4dCBmaWxsPSIjMDAwMDAwIiBmb250LWZhbWlseT0ic2Fucy1zZXJpZiIgZm9udC1zaXplPSIxMyIgbGVuZ3RoQWRqdXN0PSJzcGFjaW5nIiB0ZXh0TGVuZ3RoPSI4NiIgeD0iNjY5IiB5PSIyMDAuNzAzMSI+QGJyaWVmICYjMjEzMjc7JiMzMTI0MzsmIzMxODY3OzwvdGV4dD48L2c+PCEtLVNSQz1bVExBekppQ200RHhwNTNVc0xHUzRZMjU5OHYyV2cwQ0J4UzhLOVJSSk1nSEVQTHpHSXJMVTAyNVVXdk1QdnE1ejNJd0UtdkZJVVpoVlZUenRsb25GWjg2LUo4TTZmR1ZxUzM0Sk42SFdhRmstY0lIUXk3WTZFaElPMkNXQ0JDeC1NLXR6WndMYWZNOGUybk0tNTlBdHNYNm1qMGo2bGVlT0lKRFhwdktERkpaaEdiZUtFVVhJbkxCNVhhcTRCdENnZW1VZUktNjR0bmZmQWFkR21XV3ljVWkwTUt2NVd4b0c4a1NSSm9hTE5icklOTUUxMF84MkF2SDFNMThISXdyVzZhaVVtQ2ZZWHZZV2c4M01FOE9yTE0wM2hwd0lySmM3MGFTSlFMaHJiM2tQby11V3JrbHhENVV1VHkwY081bGJnQzBhal8xM1k0dHBhNFpMZnU2U2VmRXc5R18tenJ5cjJreEhQZFJIWXRDUlJVbWpzOWs3d3RoN1ZSb3hrTnJvVjllR1laYlExT1JwbElycWQyR0hMOWRkc3Zpd2xiSFlmdE5TN2ltcWZmQ1BnRTdjTzA5bHZOY2dlMmdxNzR5R1lnb1VnSFU2eGgyWm9CakVqUUlaX2x0dU43LXpoeHpfRkE0dUxBR19dLS0+PC9nPjwvc3ZnPg==;" vertex="1" parent="WIyWlLk6GJQsqaUBKTNV-1">
            <mxGeometry x="-790" y="1800" width="777" height="376" as="geometry" />
          </mxCell>
        </UserObject>
        <mxCell id="EvpxWQEOAeNcwRCwze3R-16" value="" style="curved=1;endArrow=classic;html=1;rounded=0;dashed=1;entryX=0.412;entryY=-0.001;entryDx=0;entryDy=0;entryPerimeter=0;" edge="1" parent="WIyWlLk6GJQsqaUBKTNV-1" target="EvpxWQEOAeNcwRCwze3R-2">
          <mxGeometry width="50" height="50" relative="1" as="geometry">
            <mxPoint x="-540" y="110" as="sourcePoint" />
            <mxPoint x="220.7840000000001" y="137.02100000000002" as="targetPoint" />
            <Array as="points">
              <mxPoint x="-270" y="110" />
              <mxPoint x="-200" y="80" />
              <mxPoint x="-70" y="70" />
            </Array>
          </mxGeometry>
        </mxCell>
        <mxCell id="EvpxWQEOAeNcwRCwze3R-18" value="" style="curved=1;endArrow=classic;html=1;rounded=0;entryX=0.744;entryY=0.16;entryDx=0;entryDy=0;entryPerimeter=0;dashed=1;" edge="1" parent="WIyWlLk6GJQsqaUBKTNV-1" target="EvpxWQEOAeNcwRCwze3R-1">
          <mxGeometry width="50" height="50" relative="1" as="geometry">
            <mxPoint x="-520" y="120.06" as="sourcePoint" />
            <mxPoint x="-460.1760000000004" y="100.00399999999996" as="targetPoint" />
            <Array as="points">
              <mxPoint x="-480" y="120.06" />
            </Array>
          </mxGeometry>
        </mxCell>
        <mxCell id="EvpxWQEOAeNcwRCwze3R-19" value="一个IO调度器，&lt;div&gt;一个连接调度器&lt;/div&gt;&lt;div&gt;这里的思路和muduo差不多&lt;/div&gt;" style="whiteSpace=wrap;html=1;" vertex="1" parent="WIyWlLk6GJQsqaUBKTNV-1">
          <mxGeometry x="-190" y="10" width="170" height="60" as="geometry" />
        </mxCell>
        <mxCell id="EvpxWQEOAeNcwRCwze3R-20" value="" style="curved=1;endArrow=classic;html=1;rounded=0;" edge="1" parent="WIyWlLk6GJQsqaUBKTNV-1">
          <mxGeometry width="50" height="50" relative="1" as="geometry">
            <mxPoint x="-710" y="90" as="sourcePoint" />
            <mxPoint x="-780" y="120" as="targetPoint" />
            <Array as="points">
              <mxPoint x="-740" y="100" />
            </Array>
          </mxGeometry>
        </mxCell>
        <mxCell id="EvpxWQEOAeNcwRCwze3R-21" value="绑定了一系列监听的socket，这里把文件描述符又封装了一层，更方便使用" style="whiteSpace=wrap;html=1;" vertex="1" parent="WIyWlLk6GJQsqaUBKTNV-1">
          <mxGeometry x="-870" y="120" width="120" height="70" as="geometry" />
        </mxCell>
        <mxCell id="EvpxWQEOAeNcwRCwze3R-22" value="" style="curved=1;endArrow=classic;html=1;rounded=0;" edge="1" parent="WIyWlLk6GJQsqaUBKTNV-1">
          <mxGeometry width="50" height="50" relative="1" as="geometry">
            <mxPoint x="-710" y="386" as="sourcePoint" />
            <mxPoint x="-870" y="370" as="targetPoint" />
            <Array as="points">
              <mxPoint x="-780" y="340" />
            </Array>
          </mxGeometry>
        </mxCell>
        <mxCell id="EvpxWQEOAeNcwRCwze3R-23" value="继承者负责重写的函数，当用户感兴趣的事件发生时执行" style="whiteSpace=wrap;html=1;" vertex="1" parent="WIyWlLk6GJQsqaUBKTNV-1">
          <mxGeometry x="-990" y="330" width="120" height="60" as="geometry" />
        </mxCell>
        <mxCell id="EvpxWQEOAeNcwRCwze3R-24" value="" style="curved=1;endArrow=classic;html=1;rounded=0;" edge="1" parent="WIyWlLk6GJQsqaUBKTNV-1">
          <mxGeometry width="50" height="50" relative="1" as="geometry">
            <mxPoint x="-710" y="266" as="sourcePoint" />
            <mxPoint x="-870" y="250" as="targetPoint" />
            <Array as="points">
              <mxPoint x="-780" y="220" />
            </Array>
          </mxGeometry>
        </mxCell>
        <mxCell id="EvpxWQEOAeNcwRCwze3R-25" value="开启server" style="whiteSpace=wrap;html=1;" vertex="1" parent="WIyWlLk6GJQsqaUBKTNV-1">
          <mxGeometry x="-940" y="240" width="70" height="20" as="geometry" />
        </mxCell>
      </root>
    </mxGraphModel>
  </diagram>
</mxfile>
